<svg width="200" height="200" viewBox="0 0 200 200" fill="none" xmlns="http://www.w3.org/2000/svg">
<rect width="200" height="200" rx="40" fill="black"/>
<path d="M108.959 50.0583H108.259L105.168 50H69.7154C69.585 49.9992 69.4558 50.0243 69.3352 50.0739C69.2145 50.1234 69.105 50.1963 69.0127 50.2885C68.9205 50.3807 68.8476 50.4902 68.798 50.6107C68.7485 50.7313 68.7234 50.8605 68.7241 50.9908V56.5859C68.7241 62.7638 73.0974 66.1442 80.9694 66.1442L108.959 66.2024C110.381 66.2024 111.746 66.7674 112.752 67.7729C113.758 68.7785 114.323 70.1423 114.323 71.5644C114.323 72.9865 113.758 74.3503 112.752 75.3559C111.746 76.3614 110.381 76.9263 108.959 76.9263H77.5874C77.3605 76.9211 77.1387 76.9933 76.9585 77.131C76.7783 77.2688 76.6504 77.4638 76.5961 77.684L69.1906 107.058C69.1307 107.361 69.1936 107.676 69.3656 107.932C69.4606 108.059 69.5839 108.162 69.7256 108.233C69.8672 108.303 70.0235 108.34 70.1819 108.34H80.153C83.8849 108.34 85.6925 105.251 86.1007 103.62L89.0163 92.9539H109.017C114.708 92.9462 120.163 90.6791 124.182 86.6514C128.2 82.6237 130.454 77.1653 130.446 71.477C130.438 65.7886 128.17 60.3364 124.14 56.3196C120.111 52.3028 114.65 50.0506 108.959 50.0583Z" fill="white"/>
<path d="M88.2732 125.42C87.8158 125.417 87.3625 125.506 86.9402 125.682C86.5179 125.858 86.135 126.116 85.8143 126.442C85.4936 126.768 85.2415 127.155 85.0729 127.58C84.9044 128.005 84.8227 128.46 84.8329 128.917C84.8329 130.549 85.8242 131.481 87.5152 131.481C87.9726 131.484 88.4258 131.394 88.8482 131.219C89.2705 131.043 89.6533 130.785 89.9741 130.459C90.2948 130.133 90.5469 129.746 90.7154 129.321C90.884 128.896 90.9656 128.441 90.9555 127.984C90.9555 126.411 89.9642 125.42 88.2732 125.42Z" fill="white"/>
<path d="M82.2672 126.236C82.1875 126.163 82.0838 126.121 81.9757 126.119H77.719C77.6342 126.113 77.5502 126.139 77.4848 126.194C77.4195 126.248 77.378 126.326 77.3691 126.411L75.6198 135.153C74.5702 133.288 72.471 132.122 69.847 132.122C64.6574 132.122 60.8672 136.318 60.8672 142.03C60.8672 146.751 63.7244 149.956 67.9228 149.956C68.8907 149.965 69.8491 149.766 70.7341 149.374C71.619 148.982 72.41 148.406 73.0541 147.683C72.9375 148.091 72.8792 148.499 72.7626 149.024C72.7474 149.125 72.768 149.228 72.8209 149.315C72.9006 149.389 73.0043 149.43 73.1124 149.432H77.3691C77.4539 149.438 77.5379 149.412 77.6033 149.357C77.6686 149.303 77.7101 149.225 77.719 149.141L82.2672 126.585C82.2958 126.532 82.3107 126.472 82.3107 126.411C82.3107 126.35 82.2958 126.29 82.2672 126.236ZM74.0454 140.981C73.9392 141.571 73.7425 142.141 73.4623 142.671C73.1795 143.151 72.8473 143.601 72.471 144.012C72.061 144.356 71.6107 144.65 71.1299 144.886C70.1822 145.283 69.1186 145.304 68.156 144.944C67.7645 144.781 67.4081 144.543 67.1064 144.245C66.805 143.934 66.5847 143.554 66.465 143.138C66.3426 142.642 66.2838 142.133 66.2901 141.622C66.3358 140.984 66.4733 140.356 66.6983 139.757C67.1429 138.598 68.0212 137.658 69.1473 137.134C69.695 136.876 70.2912 136.737 70.8966 136.726C71.397 136.727 71.8923 136.826 72.3544 137.018C72.7637 137.203 73.1233 137.483 73.404 137.834C73.7015 138.228 73.9013 138.688 73.9871 139.174C74.1528 139.763 74.1728 140.383 74.0454 140.981Z" fill="white"/>
<path d="M88.9147 133.929H84.4831C84.3934 133.93 84.3061 133.958 84.233 134.01C84.16 134.062 84.1048 134.136 84.0749 134.22L81.1011 149.024C81.0859 149.125 81.1065 149.228 81.1594 149.315C81.2391 149.389 81.3428 149.43 81.4509 149.432H85.8826C85.9723 149.431 86.0596 149.403 86.1326 149.351C86.2056 149.298 86.2608 149.225 86.2907 149.141L89.2646 134.337C89.2798 134.236 89.2591 134.133 89.2062 134.046C89.1266 133.972 89.0229 133.931 88.9147 133.929Z" fill="white"/>
<path d="M24.8311 148.033C25.2976 146.052 26.1139 141.622 26.1139 141.506L31.3036 141.564C37.2512 141.564 40.9248 138.358 40.9248 133.288C40.9248 128.8 37.8344 126.119 32.703 126.119H23.8981C23.8084 126.12 23.7211 126.148 23.6481 126.201C23.575 126.253 23.5198 126.326 23.4899 126.411L19 148.791C19 148.907 19 149.024 19.1166 149.082C19.2332 149.141 19.2916 149.199 19.4082 149.199H23.3733C23.7181 149.222 24.059 149.115 24.3289 148.899C24.5987 148.683 24.7779 148.374 24.8311 148.033ZM31.4785 136.726H27.1052C27.1052 136.61 28.2131 131.131 28.2714 130.898L32.3531 130.957C34.2774 130.957 35.3853 131.889 35.3853 133.521C35.327 135.503 33.9275 136.726 31.4785 136.726Z" fill="white"/>
<path d="M121.568 132.064C115.796 132.064 111.597 136.202 111.597 141.855C111.597 146.751 114.921 149.84 120.111 149.84C125.883 149.84 130.082 145.702 130.082 140.048C130.082 135.211 126.758 132.064 121.568 132.064ZM120.402 144.886C118.186 144.886 116.903 143.662 116.903 141.564C116.874 140.981 116.964 140.399 117.168 139.853C117.372 139.307 117.686 138.808 118.09 138.388C118.495 137.967 118.981 137.634 119.519 137.408C120.057 137.183 120.635 137.07 121.218 137.076C123.434 137.076 124.717 138.3 124.717 140.398C124.717 143.021 122.909 144.886 120.402 144.886Z" fill="white"/>
<path d="M112.239 126.236C112.159 126.163 112.056 126.121 111.948 126.119H107.633C107.548 126.113 107.464 126.139 107.398 126.194C107.333 126.248 107.292 126.326 107.283 126.411L105.533 135.153C104.484 133.288 102.385 132.122 99.7606 132.122C94.571 132.122 90.7808 136.318 90.7808 142.03C90.7808 146.751 93.638 149.956 97.8364 149.956C98.8043 149.965 99.7627 149.766 100.648 149.374C101.533 148.982 102.324 148.406 102.968 147.683C102.851 148.091 102.793 148.499 102.676 149.024C102.661 149.125 102.682 149.228 102.734 149.315C102.814 149.389 102.918 149.43 103.026 149.432H107.283C107.367 149.438 107.451 149.412 107.517 149.357C107.582 149.303 107.624 149.225 107.633 149.141L112.181 126.585C112.23 126.543 112.263 126.485 112.274 126.421C112.285 126.357 112.272 126.291 112.239 126.236ZM104.076 140.981C103.969 141.571 103.773 142.141 103.492 142.671C103.21 143.151 102.877 143.601 102.501 144.012C102.091 144.356 101.641 144.65 101.16 144.886C100.212 145.283 99.1488 145.304 98.1862 144.944C97.7947 144.781 97.4383 144.543 97.1366 144.245C96.8352 143.934 96.6149 143.554 96.4952 143.138C96.3728 142.642 96.314 142.133 96.3203 141.622C96.366 140.984 96.5035 140.356 96.7284 139.757C97.1731 138.598 98.0514 137.658 99.1775 137.134C99.7252 136.876 100.321 136.737 100.927 136.726C101.427 136.727 101.922 136.826 102.385 137.018C102.794 137.203 103.154 137.483 103.434 137.834C103.732 138.228 103.931 138.688 104.017 139.174C104.183 139.763 104.203 140.383 104.076 140.981Z" fill="white"/>
<path d="M144.134 133.404C142.08 132.432 139.814 131.991 137.545 132.122C133.872 132.472 131.772 134.628 132.064 137.834C132.239 139.757 133.347 141.214 135.446 142.38L137.778 143.604C138.711 144.128 138.828 144.361 138.828 144.653C138.886 145.352 138.128 145.527 137.603 145.585C136.146 145.702 134.396 145.177 132.472 144.012C132.385 143.959 132.282 143.938 132.181 143.953C132.064 143.953 132.006 144.07 131.947 144.128L130.081 147.392C130.054 147.434 130.036 147.481 130.027 147.53C130.019 147.579 130.02 147.63 130.031 147.679C130.041 147.727 130.062 147.773 130.09 147.814C130.119 147.855 130.156 147.89 130.198 147.917C132.448 149.47 135.17 150.192 137.895 149.956C141.977 149.607 144.134 147.45 143.843 144.07C143.668 142.03 142.676 140.69 140.461 139.582L138.361 138.533C137.137 137.834 137.079 137.717 137.02 137.367C137.02 137.193 136.962 136.668 138.128 136.552C139.591 136.498 141.042 136.84 142.327 137.542C142.37 137.571 142.42 137.587 142.472 137.587C142.524 137.587 142.575 137.571 142.618 137.542C142.706 137.499 142.785 137.439 142.851 137.367L144.309 134.045C144.426 133.696 144.309 133.463 144.134 133.404Z" fill="white"/>
<path d="M167.168 126.177C167.131 126.114 167.081 126.061 167.02 126.02C166.959 125.98 166.89 125.954 166.818 125.944H160.812C160.744 125.942 160.676 125.957 160.615 125.988C160.554 126.018 160.501 126.063 160.462 126.119C160.462 126.119 154.456 134.628 154.048 135.386C153.931 134.628 151.016 126.236 151.016 126.236C150.986 126.151 150.931 126.078 150.858 126.026C150.785 125.974 150.697 125.945 150.608 125.944H145.36C145.293 125.948 145.227 125.966 145.167 125.996C145.107 126.026 145.053 126.068 145.01 126.119C144.973 126.168 144.948 126.226 144.938 126.287C144.928 126.348 144.932 126.41 144.951 126.469L150.549 140.631L148.858 148.849C148.849 148.969 148.869 149.089 148.917 149.199C148.944 149.252 148.986 149.297 149.037 149.328C149.089 149.359 149.148 149.375 149.208 149.374H153.465C153.738 149.379 154.004 149.289 154.217 149.118C154.43 148.948 154.576 148.708 154.631 148.441L156.147 140.806L167.109 126.585C167.142 126.564 167.17 126.536 167.191 126.503C167.212 126.47 167.226 126.433 167.231 126.395C167.237 126.356 167.234 126.317 167.223 126.279C167.212 126.242 167.193 126.207 167.168 126.177Z" fill="white"/>
<path d="M179.996 132.588C179.916 132.515 179.812 132.474 179.704 132.472H175.564C175.479 132.465 175.395 132.492 175.33 132.547C175.264 132.601 175.223 132.679 175.214 132.763C175.214 132.763 175.039 133.579 174.981 134.104C174.512 133.53 173.926 133.061 173.263 132.73C172.6 132.398 171.873 132.211 171.132 132.18C169.823 132.108 168.513 132.306 167.284 132.763C165.279 133.544 163.559 134.915 162.351 136.695C161.143 138.474 160.504 140.579 160.52 142.73C160.578 146.576 163.085 149.141 166.876 149.315C167.871 149.377 168.869 149.238 169.811 148.908C170.752 148.577 171.618 148.062 172.357 147.392C172.299 147.8 172.182 148.325 172.124 148.733C172.108 148.834 172.129 148.937 172.182 149.024C172.262 149.097 172.365 149.139 172.474 149.141H176.614C176.698 149.147 176.782 149.12 176.848 149.066C176.913 149.011 176.955 148.934 176.963 148.849L180.171 132.822C180.112 132.822 180.054 132.705 179.996 132.588ZM173.581 140.864C173.468 141.426 173.292 141.974 173.057 142.496C172.793 142.971 172.459 143.404 172.065 143.779C171.699 144.136 171.262 144.414 170.782 144.595C169.889 144.962 168.891 144.983 167.984 144.653C167.61 144.488 167.273 144.251 166.992 143.953C166.71 143.661 166.509 143.299 166.409 142.904C166.286 142.448 166.227 141.978 166.234 141.506C166.28 140.886 166.418 140.278 166.642 139.699C166.87 139.165 167.185 138.672 167.575 138.242C167.977 137.829 168.452 137.493 168.975 137.251C169.506 137.012 170.083 136.893 170.666 136.901C171.147 136.901 171.624 137 172.065 137.193C172.467 137.364 172.811 137.647 173.057 138.009C173.353 138.382 173.553 138.822 173.64 139.291C173.64 139.699 173.64 140.223 173.581 140.864Z" fill="white"/>
<path d="M51.1292 132.064C45.4148 132.064 41.333 136.202 41.333 141.913C41.333 146.809 44.6567 149.898 49.963 149.898C52.2992 149.914 54.5821 149.201 56.4938 147.858C56.5388 147.826 56.5764 147.784 56.6041 147.736C56.6318 147.688 56.649 147.635 56.6545 147.58C56.6601 147.525 56.6538 147.469 56.6361 147.417C56.6185 147.364 56.5898 147.316 56.5521 147.275L53.9281 144.594C53.8741 144.544 53.8061 144.512 53.7332 144.501C53.6602 144.491 53.5858 144.503 53.5199 144.536C52.4618 145.104 51.2806 145.404 50.0796 145.41C47.6306 145.41 46.2311 144.303 46.1728 142.38L58.1265 142.321C58.2113 142.328 58.2953 142.301 58.3606 142.247C58.426 142.192 58.4675 142.114 58.4763 142.03C58.7366 141.04 58.8737 140.022 58.8845 138.999C58.8845 134.745 55.9107 132.064 51.1292 132.064ZM46.6976 138.65C47.0184 137.776 47.6101 137.028 48.3863 136.514C49.1625 136 50.0827 135.748 51.0126 135.794C53.1701 135.794 54.278 136.785 54.3363 138.65C53.9864 138.708 47.0475 138.65 46.6976 138.65Z" fill="white"/>
</svg>
