<svg width="200" height="200" viewBox="0 0 200 200" fill="none" xmlns="http://www.w3.org/2000/svg">
<rect width="200" height="200" rx="40" fill="black"/>
<path fill-rule="evenodd" clip-rule="evenodd" d="M50.0066 83.3928C49.7367 84.336 49.4921 85.2528 49.2782 86.1245C49.0084 87.2251 48.7608 88.2241 48.5356 89.1215C48.3162 90.002 48.1594 90.7064 48.0705 91.2226C47.8928 92.1372 47.2961 92.715 46.3429 92.9032C45.4689 93.0627 44.5687 92.9937 43.7289 92.7029C42.8133 92.3967 41.983 91.8774 41.3058 91.1874C40.5566 90.44 40.1771 89.5012 40.1771 88.3951C40.1771 87.4948 40.3965 86.0706 40.8637 84.0443C41.3146 82.0632 41.9607 79.7222 42.7976 77.0741C43.6236 74.4458 44.6262 71.5501 45.7758 68.4673C46.763 65.8192 47.8698 63.1546 49.0731 60.5263C49.2669 60.1029 49.5661 59.7366 49.9419 59.4629C50.3177 59.1892 50.7574 59.0172 51.2187 58.9634C53.3394 58.7162 55.1811 58.7774 56.7439 59.1472C56.9646 59.1989 57.1711 59.299 57.3488 59.4402C57.5264 59.5814 57.6706 59.7604 57.7712 59.9641C57.8718 60.1679 57.9261 60.3915 57.9304 60.6189C57.9346 60.8462 57.8887 61.0717 57.7958 61.2791C56.7888 63.5365 55.8608 65.7917 55.0316 67.9786C54.3603 69.7539 53.7153 71.5094 53.1098 73.2176C53.0964 73.2549 53.0943 73.2954 53.1038 73.334C53.1133 73.3725 53.1339 73.4074 53.1631 73.4342C53.1923 73.461 53.2287 73.4786 53.2679 73.4847C53.307 73.4908 53.347 73.4852 53.3829 73.4685C54.209 73.0841 55.0077 72.6428 55.7731 72.1478C57.0498 71.3254 58.2149 70.3406 59.2394 69.2179C60.2535 68.107 61.0891 66.8445 61.7162 65.4758C62.3407 64.1006 62.6596 62.6055 62.6508 61.0942C62.6508 59.0977 62.1023 57.6229 61.0131 56.7127C59.9238 55.8025 58.3651 55.3182 56.4126 55.3182C54.3285 55.3182 52.4264 55.8146 50.7525 56.793C49.0856 57.7546 47.594 58.994 46.3418 60.4581C45.1665 61.8292 44.2049 63.3711 43.4898 65.0312C42.8207 66.6116 42.4817 68.0028 42.4817 69.1508C42.4817 69.9773 42.0429 70.575 41.2564 70.8314C40.5654 71.0581 39.803 71.024 39.0198 70.7313C38.2673 70.4495 37.5686 69.8937 36.9456 69.0803C36.3225 68.267 36 67.1553 36 65.7906C36 64.5986 36.4497 63.1953 37.3744 61.4982C38.2761 59.8472 39.61 58.2337 41.3354 56.7138C43.0609 55.1938 45.2361 53.8753 47.8073 52.7956C50.3938 51.7104 53.3807 51.16 56.6923 51.16C58.5821 51.1614 60.4654 51.383 62.3042 51.8204C64.063 52.2224 65.7491 52.8952 67.3028 53.8147C68.7269 54.6573 69.9572 55.7927 70.9128 57.1463C71.8452 58.488 72.318 60.0619 72.318 61.8228C72.3317 63.6573 71.9086 65.4685 71.0839 67.1058C70.2444 68.7373 69.1202 70.2045 67.7646 71.4379C66.3058 72.7624 64.6739 73.8814 62.9141 74.7639C61.3654 75.5481 59.7556 76.2045 58.1008 76.7263C58.0766 76.7288 58.0533 76.7362 58.0322 76.7483C58.0111 76.7604 57.9928 76.7767 57.9784 76.7963C57.9641 76.8159 57.954 76.8384 57.9488 76.8621C57.9436 76.8859 57.9434 76.9105 57.9483 76.9343C57.9834 77.773 58.0437 78.5996 58.1271 79.3986C58.2214 80.3154 58.3465 81.2092 58.5011 82.0577C58.6514 82.8898 58.8302 83.702 59.0397 84.4692C59.1988 85.0635 59.3776 85.6424 59.5695 86.1894C59.6913 86.5405 59.8196 86.8817 59.9513 87.2042C60.2047 87.8338 60.4918 88.4492 60.8113 89.0478C61.1048 89.597 61.4296 90.1287 61.7842 90.6404C62.1109 91.1104 62.4678 91.5586 62.8526 91.982C63.2082 92.3757 63.5912 92.7435 63.9989 93.0826C64.3791 93.3987 64.7825 93.6857 65.2055 93.9411C65.6104 94.1834 66.0333 94.3943 66.4703 94.5718C67.328 94.9142 68.2342 95.1186 69.1555 95.1771C69.6307 95.2058 70.1074 95.1984 70.5815 95.1551C71.0825 95.111 71.5796 95.0304 72.0689 94.9141C72.5935 94.7892 73.1094 94.6304 73.6134 94.4386C74.1572 94.2302 74.6883 93.9898 75.2039 93.7188C75.4058 93.6087 75.6098 93.4987 75.8116 93.3886C76.1294 93.2043 76.5041 93.1453 76.8629 93.223C77.2216 93.3007 77.5387 93.5096 77.7524 93.809C77.9661 94.1084 78.061 94.4769 78.0188 94.8427C77.9766 95.2085 77.8002 95.5455 77.5239 95.7879C77.2446 96.0345 76.9641 96.2737 76.6826 96.5056C76.0058 97.0636 75.3268 97.5798 74.6643 98.0464C74.0324 98.4867 73.3918 98.8928 72.7611 99.2571C72.443 99.4398 72.1106 99.6203 71.7739 99.792C71.1383 100.116 70.4858 100.406 69.8192 100.659C69.1893 100.897 68.5457 101.097 67.8919 101.257C67.2698 101.409 66.6385 101.519 66.0019 101.587C65.5631 101.631 65.1156 101.654 64.6856 101.654C64.5101 101.654 64.3357 101.654 64.1602 101.644C63.563 101.618 62.9686 101.547 62.382 101.432C62.0946 101.376 61.8073 101.306 61.5232 101.226C61.2391 101.146 60.9747 101.06 60.6906 100.958C60.1449 100.757 59.615 100.516 59.1055 100.236C58.5955 99.9546 58.1064 99.6367 57.6423 99.2846C57.2598 98.9932 56.8936 98.6809 56.5453 98.3491C56.1085 97.9352 55.6982 97.4941 55.3168 97.0283C54.9234 96.5474 54.5571 96.0448 54.2199 95.5227C53.8765 94.9922 53.5507 94.4276 53.2502 93.8454C52.9496 93.2631 52.6677 92.6424 52.4099 92.0029C52.1522 91.3635 51.9152 90.68 51.6958 89.9877C51.4765 89.2954 51.2878 88.5833 51.1167 87.8415C50.9455 87.0997 50.7975 86.3281 50.6779 85.5522C50.5682 84.8654 50.475 84.1522 50.4015 83.428C50.3973 83.3812 50.3768 83.3373 50.3436 83.3041C50.3104 83.2709 50.2666 83.2505 50.2199 83.2464C50.1732 83.2424 50.1266 83.2549 50.0882 83.2819C50.0498 83.3088 50.0221 83.3485 50.0099 83.3939L50.0066 83.3928ZM161.684 78.3927C161.534 78.1743 161.333 77.9962 161.099 77.8737C160.864 77.7513 160.604 77.6884 160.339 77.6905C160.09 77.6876 159.844 77.7463 159.623 77.8615C159.402 77.9767 159.212 78.1447 159.071 78.3508C158.742 78.8351 158.328 79.4096 157.849 80.059C157.328 80.7679 156.766 81.4455 156.167 82.0885C155.633 82.6678 155.064 83.213 154.463 83.7208C153.901 84.1874 153.538 84.2865 153.332 84.2865C153.19 84.2865 152.922 84.2865 152.862 83.5766C152.798 82.8326 152.908 81.8662 153.191 80.7018C153.52 79.3637 153.931 78.0471 154.421 76.7593C154.963 75.312 155.507 73.9297 156.035 72.6518C156.583 71.3223 157.059 70.2173 157.481 69.274C157.902 68.3308 158.164 67.7233 158.264 67.4558C158.6 66.6854 158.483 65.9149 157.91 65.2491C157.363 64.62 156.638 64.1734 155.832 63.9691C154.95 63.7388 154.025 63.7252 153.137 63.9294C152.12 64.1496 151.314 64.7384 150.741 65.6816C150.237 66.5115 149.58 67.8135 148.789 69.5525C147.998 71.2915 147.229 73.2308 146.51 75.3054C146.072 76.5634 145.673 77.8424 145.309 79.1312C144.703 81.272 143.457 83.175 141.74 84.5837C141.121 85.0915 140.475 85.5655 139.805 86.0034C139.507 86.1994 139.208 86.3806 138.908 86.5471C138.887 86.5584 138.864 86.5624 138.841 86.5584C138.818 86.5543 138.798 86.5426 138.782 86.525C138.767 86.5075 138.758 86.4852 138.758 86.462C138.757 86.4388 138.764 86.416 138.778 86.3975C139.297 85.7118 139.808 84.9667 140.305 84.1786C141.333 82.5486 142.267 80.595 143.085 78.3751C143.951 76.0241 144.493 73.8801 144.698 72.0003C144.904 70.0995 144.833 68.4387 144.479 67.0684C144.117 65.6519 143.484 64.537 142.598 63.7577C141.68 62.951 140.545 62.5416 139.226 62.5416C137.722 62.5268 136.246 62.9529 134.98 63.7676C134.13 64.3136 133.331 64.935 132.592 65.6244C132.531 65.6805 132.482 65.6739 132.438 65.6035C132.26 65.3287 132.041 65.0836 131.788 64.8771C131.153 64.3589 130.399 64.0108 129.594 63.8656C128.745 63.7049 127.869 63.7648 127.05 64.0395C126.154 64.3334 125.486 64.9442 125.063 65.8533C124.253 67.6066 123.397 69.6494 122.519 71.9309C121.64 74.2125 120.79 76.5888 119.98 79.0068C119.892 79.2754 119.803 79.5432 119.713 79.8103C119.03 81.8723 117.747 83.6819 116.03 85.0063C115.576 85.3541 115.108 85.6865 114.627 86.0034C114.329 86.1994 114.029 86.3806 113.728 86.5471C113.708 86.5579 113.684 86.5614 113.662 86.5571C113.639 86.5529 113.619 86.5411 113.604 86.5237C113.589 86.5063 113.581 86.4843 113.58 86.4614C113.579 86.4385 113.586 86.4159 113.599 86.3975C114.119 85.7122 114.628 84.9725 115.127 84.1786C116.153 82.5508 117.089 80.5983 117.907 78.3751C118.773 76.0241 119.316 73.8801 119.52 72.0003C119.727 70.0984 119.656 68.4376 119.306 67.0684C118.945 65.653 118.313 64.537 117.424 63.7577C116.506 62.951 115.372 62.5416 114.055 62.5416C112.55 62.5262 111.074 62.9524 109.807 63.7676C108.957 64.3144 108.158 64.937 107.419 65.6277C107.36 65.6838 107.31 65.6772 107.267 65.6068C107.089 65.3326 106.869 65.0879 106.615 64.8815C105.982 64.3626 105.227 64.0144 104.422 63.87C103.573 63.7089 102.698 63.7688 101.88 64.0439C100.985 64.3378 100.316 64.9475 99.8912 65.8588C99.0806 67.6132 98.225 69.6582 97.3475 71.9353C96.5259 74.0749 95.7262 76.296 94.9672 78.539C94.4313 80.1772 93.5007 81.6574 92.2578 82.848C91.9287 83.1694 91.5996 83.461 91.2947 83.7197C90.7342 84.1863 90.3711 84.2854 90.1648 84.2854C90.0211 84.2854 89.7535 84.2854 89.6932 83.5755C89.6296 82.8326 89.7403 81.8662 90.0223 80.7007C90.3532 79.3628 90.7645 78.0462 91.2541 76.7582C91.7894 75.3274 92.3324 73.944 92.8677 72.6507C93.403 71.3575 93.8944 70.2107 94.3123 69.2729C94.7412 68.3143 94.9968 67.72 95.0955 67.4536C95.4334 66.6832 95.3149 65.9128 94.7412 65.2524C94.1848 64.6167 93.4461 64.1692 92.6263 63.9713C91.7438 63.7429 90.8197 63.7301 89.9312 63.9338C88.944 64.154 88.1443 64.7428 87.5739 65.6838C87.4588 65.8698 87.3403 66.0767 87.213 66.3046C87.203 66.3224 87.1877 66.3368 87.1693 66.3458C87.1509 66.3547 87.1302 66.3579 87.11 66.3548C87.0897 66.3517 87.0709 66.3425 87.056 66.3284C87.0411 66.3143 87.0309 66.296 87.0266 66.276C86.9212 65.7697 86.7451 65.281 86.5033 64.8242C86.1347 64.1417 85.5869 63.5734 84.9194 63.181C84.2174 62.7584 83.3277 62.5449 82.2725 62.5449C79.7858 62.5449 77.2651 63.6961 74.7783 65.9667C72.3366 68.1976 70.3128 71.7548 68.7617 76.5436C68.0334 78.8549 67.6056 80.9868 67.4915 82.8887C67.3818 84.8126 67.531 86.4723 67.9522 87.8228C68.3833 89.214 69.0744 90.3135 70.0056 91.0872C70.9664 91.8897 72.1825 92.3193 73.4324 92.2979C74.3747 92.3037 75.3098 92.1335 76.1901 91.796C77.6152 91.2521 78.9003 90.3937 79.9503 89.2844C80.0231 89.2073 80.1148 89.1509 80.2162 89.1207C80.3176 89.0905 80.4251 89.0877 80.528 89.1124C80.6309 89.1372 80.7254 89.1887 80.8021 89.2618C80.8788 89.3349 80.935 89.4269 80.965 89.5287C81.0996 90.0018 81.3072 90.4508 81.5803 90.8594C82.2297 91.8136 83.2575 92.2979 84.6364 92.2979C86.1611 92.2979 87.7077 91.7234 89.2182 90.5908C89.9371 90.0543 90.6269 89.4797 91.2848 88.8695C91.3171 88.839 91.3586 88.8201 91.4028 88.8157C91.447 88.8114 91.4913 88.8219 91.5289 88.8455C91.5665 88.8692 91.5952 88.9046 91.6106 88.9464C91.626 88.9882 91.6271 89.0339 91.6139 89.0764C91.2234 90.3784 90.8724 91.5858 90.5576 92.7172C90.0255 94.6213 89.5934 96.2601 89.2709 97.5908C88.8398 99.376 88.7838 99.8602 88.7838 100.084C88.7838 101.177 89.1239 102.11 89.7919 102.857C90.3953 103.545 91.1603 104.07 92.0175 104.385C92.5264 104.573 93.0636 104.673 93.6059 104.68C93.8823 104.68 94.1579 104.65 94.4275 104.589C95.0231 104.454 95.78 104.055 96.0005 102.922V102.901C96.0882 102.305 96.255 101.498 96.4974 100.501C96.7486 99.4673 97.0557 98.2897 97.4067 97.0008C97.7577 95.712 98.1504 94.2933 98.6199 92.6391C98.8393 91.8686 99.0675 91.0729 99.3143 90.2408C99.3255 90.2031 99.3475 90.1695 99.3775 90.1441C99.4076 90.1188 99.4444 90.1029 99.4834 90.0983C99.5224 90.0937 99.5618 90.1007 99.5969 90.1184C99.6319 90.1361 99.6611 90.1638 99.6806 90.1979C99.7926 90.3903 99.9153 90.5762 100.048 90.7548C100.806 91.7751 102.023 92.2957 103.648 92.2957C103.977 92.31 104.306 92.3177 104.627 92.3177C107.025 92.3177 109.275 91.905 111.318 91.0905C113.196 90.3522 114.985 89.4045 116.652 88.2652C116.686 88.2426 116.726 88.2308 116.767 88.2316C116.808 88.2323 116.847 88.2456 116.881 88.2695C116.914 88.2934 116.939 88.3268 116.952 88.3654C116.966 88.404 116.968 88.4458 116.957 88.4853C116.5 89.9965 116.087 91.4119 115.725 92.7106C115.19 94.6279 114.758 96.2678 114.438 97.5842C114.008 99.3716 113.952 99.8558 113.952 100.077C113.952 101.17 114.291 102.102 114.96 102.851C115.563 103.539 116.328 104.064 117.186 104.378C117.695 104.567 118.232 104.666 118.774 104.673C119.05 104.673 119.326 104.643 119.595 104.582C120.192 104.448 120.948 104.048 121.169 102.916V102.894C121.257 102.296 121.425 101.489 121.667 100.494C121.917 99.4607 122.223 98.2831 122.574 96.9942C122.925 95.7054 123.321 94.2812 123.788 92.6325C124.007 91.862 124.237 91.0652 124.483 90.2342C124.494 90.1964 124.516 90.1627 124.546 90.1372C124.576 90.1118 124.613 90.0957 124.652 90.091C124.691 90.0863 124.73 90.0932 124.765 90.1109C124.801 90.1285 124.83 90.1561 124.849 90.1902C124.961 90.383 125.084 90.569 125.217 90.7471C125.975 91.7685 127.191 92.288 128.818 92.288C129.147 92.3023 129.476 92.31 129.796 92.31C132.192 92.31 134.444 91.8973 136.487 91.0828C138.676 90.2273 140.742 89.0821 142.629 87.6775C142.934 87.4486 143.231 87.2152 143.52 86.9808C143.55 86.9556 143.586 86.9395 143.624 86.9345C143.663 86.9296 143.702 86.9359 143.737 86.9528C143.771 86.9698 143.801 86.9965 143.821 87.0298C143.841 87.0631 143.851 87.1015 143.849 87.1404C143.849 87.2185 143.849 87.2945 143.849 87.3693C143.849 88.8001 144.151 89.9756 144.744 90.8495C145.394 91.8037 146.423 92.288 147.8 92.288C149.323 92.288 150.872 91.7146 152.414 90.5831C153.912 89.475 155.287 88.2091 156.516 86.8069C157.689 85.4876 158.774 84.0923 159.764 82.6301C160.686 81.2521 161.307 80.3088 161.661 79.7486C161.799 79.5493 161.876 79.3132 161.88 79.0703C161.884 78.8274 161.816 78.5889 161.684 78.385V78.3927ZM83.8927 71.0482C84.0024 70.0577 83.9892 69.2465 83.8641 68.6269C83.7259 67.9302 83.4978 67.7761 83.4254 67.7464C83.3998 67.7352 83.3721 67.7296 83.3442 67.7299C83.2762 67.7299 83.082 67.7585 82.7343 68.0182C82.2637 68.3715 81.7471 68.9384 81.1986 69.7033C80.5553 70.6224 79.984 71.5902 79.4896 72.5979C78.9159 73.7359 78.3532 75.0061 77.8212 76.373C77.3141 77.6575 76.892 78.9741 76.5576 80.3143C76.2744 81.424 76.0753 82.5535 75.9619 83.6932C75.8764 84.6662 75.8851 85.4785 75.9926 86.1146C76.1023 86.8025 76.3217 86.95 76.3864 86.9775C76.4129 86.99 76.4417 86.9963 76.4709 86.9962C76.5378 86.9962 76.7309 86.9676 77.0797 86.7067C77.5503 86.3545 78.0669 85.7976 78.6209 85.0481C79.2682 84.1428 79.8405 83.1857 80.3321 82.1865C80.9112 81.0331 81.4729 79.7651 81.9994 78.4125C82.5049 77.1267 82.927 75.8094 83.263 74.469C83.5459 73.3439 83.7563 72.2016 83.8927 71.0493V71.0482ZM111.127 71.1077C110.914 72.2548 110.637 73.3891 110.298 74.5053C109.893 75.843 109.417 77.1579 108.872 78.4444C108.251 79.807 107.61 81.0782 106.967 82.2228C106.411 83.234 105.782 84.2032 105.085 85.123C104.49 85.8934 103.938 86.4624 103.44 86.8157C103.069 87.0832 102.864 87.1118 102.794 87.1118C102.763 87.112 102.732 87.1056 102.704 87.0931C102.643 87.0655 102.436 86.9236 102.345 86.2445C102.262 85.627 102.306 84.8137 102.478 83.8231C102.687 82.6657 102.965 81.5217 103.308 80.3969C103.713 79.0556 104.192 77.7379 104.743 76.4501C105.284 75.1577 105.907 73.9012 106.608 72.6882C107.176 71.6866 107.813 70.7267 108.516 69.8155C109.111 69.066 109.664 68.5047 110.162 68.1481C110.535 67.8807 110.74 67.8531 110.811 67.8531C110.841 67.8519 110.87 67.8576 110.897 67.8696C110.958 67.8972 111.166 68.0402 111.259 68.7182C111.341 69.3379 111.297 70.1413 111.126 71.1077H111.127ZM136.299 71.1077C136.086 72.255 135.808 73.3894 135.468 74.5053C135.064 75.8432 134.588 77.1582 134.042 78.4444C133.421 79.8048 132.78 81.076 132.136 82.2228C131.58 83.2341 130.951 84.2034 130.254 85.123C129.658 85.8934 129.107 86.4635 128.609 86.8157C128.238 87.0832 128.031 87.1118 127.96 87.1118C127.93 87.1118 127.899 87.1054 127.871 87.0931C127.81 87.0655 127.603 86.9225 127.513 86.2445C127.428 85.6248 127.473 84.8137 127.646 83.8231C127.855 82.6657 128.132 81.5216 128.476 80.3969C128.879 79.0553 129.355 77.7369 129.902 76.4479C130.444 75.1557 131.067 73.8993 131.767 72.686C132.336 71.6845 132.976 70.7253 133.682 69.8155C134.274 69.0682 134.827 68.5069 135.327 68.1492C135.7 67.8818 135.906 67.8542 135.977 67.8542C136.006 67.8532 136.035 67.8589 136.062 67.8707C136.124 67.8983 136.331 68.0413 136.423 68.7193C136.506 69.3401 136.463 70.1501 136.291 71.1088L136.299 71.1077ZM162.939 55.6407C162.939 56.7563 162.609 57.8469 161.992 58.7745C161.374 59.7021 160.496 60.425 159.469 60.852C158.441 61.2789 157.311 61.3906 156.221 61.173C155.13 60.9553 154.128 60.4181 153.342 59.6292C152.556 58.8404 152.02 57.8353 151.804 56.7411C151.587 55.6469 151.698 54.5128 152.123 53.4821C152.549 52.4514 153.27 51.5704 154.194 50.9506C155.118 50.3308 156.205 50 157.317 50C158.808 50.0003 160.238 50.5947 161.292 51.6524C162.346 52.7102 162.939 54.1448 162.939 55.6407Z" fill="white"/>
<path fill-rule="evenodd" clip-rule="evenodd" d="M162.158 122.483C155.434 128.391 149.468 128.757 142.304 123.474C139.013 121.044 136.06 118.148 132.76 115.731C130.206 113.86 127.506 112.003 124.59 110.849C119.544 108.845 114.425 109.528 109.817 112.336C106.686 114.245 103.835 116.628 100.932 118.89C100.524 119.203 100.219 119.376 99.9099 119.364C99.6006 119.376 99.2956 119.203 98.8876 118.89C95.9851 116.624 93.1342 114.245 90.0025 112.336C85.3954 109.527 80.2761 108.845 75.2303 110.849C72.3136 112.003 69.614 113.861 67.0593 115.731C63.7554 118.152 60.8069 121.044 57.5161 123.474C50.3543 128.766 44.3881 128.395 37.6618 122.483C37.1083 121.997 36.5543 121.511 36 121.027C37.0004 126.585 39.1613 131.571 42.3468 136.096C46.4131 141.87 51.7463 146.001 58.4419 148.276C74.0906 153.585 93.8571 146.185 99.9121 132.222C105.967 146.186 125.734 153.585 141.382 148.276C148.073 146.005 153.41 141.87 157.477 136.096C160.658 131.571 162.824 126.585 163.824 121.027C163.267 121.511 162.712 121.996 162.158 122.483Z" fill="white"/>
</svg>
