<svg width="82" height="120" viewBox="0 0 82 120" fill="none" xmlns="http://www.w3.org/2000/svg">
<g clip-path="url(#clip0_231_1140)">
<path d="M36.672 77.4475C38.3915 75.2923 41.1198 72.266 40.9937 69.3084C40.8561 65.9496 37.7381 62.4303 35.4339 60.2179C30.0804 55.1166 20.8982 57.822 16.0262 62.3615C13.7335 64.6542 11.7618 67.0845 12.1515 70.5694C12.5069 73.6302 14.8913 80.0154 17.5508 81.861C19.8435 83.4544 25.346 83.2136 27.9712 83.099C32.0178 82.9156 34.2417 80.5082 36.672 77.4475ZM30.5161 60.8025C29.4958 62.0635 28.4985 63.3359 27.4668 64.5855C26.435 65.835 25.1053 66.9355 24.0277 68.185C23.0987 68.1222 22.1659 68.1491 21.2421 68.2652C19.3506 68.3913 17.4476 68.4487 15.5676 68.6321C15.9733 67.0121 16.8136 65.5336 17.9979 64.3562C21.0816 61.5018 26.2516 59.6447 30.5161 60.8025ZM23.2711 80.0497C21.2037 79.6719 19.3135 78.6364 17.8821 77.0976C16.4506 75.5587 15.5544 73.5987 15.3269 71.5094C17.7686 71.1999 22.8814 70.0765 24.4977 71.8648C26.4694 73.974 27.2489 77.3214 28.9341 79.7058C27.1074 80.3056 25.1569 80.4241 23.2711 80.0497ZM31.4904 78.4219C29.5875 75.7739 28.659 72.2201 26.4924 69.767C27.4553 68.7238 28.5558 67.7838 29.4614 66.6833C30.688 65.193 31.8687 63.6569 33.0953 62.1552C33.0953 62.1552 33.3131 62.2813 33.4163 62.3615C34.8722 63.5079 37.8183 67.0157 38.0017 69.0447C38.1851 71.0738 36.4656 73.057 35.4797 74.4326C34.3948 75.962 33.0574 77.2955 31.5248 78.376L31.4904 78.4219Z" fill="black"/>
<path d="M52.4457 90.2407C47.161 87.7072 37.8871 87.2487 34.0353 92.6136C32.1324 95.2617 29.9887 100.237 30.5963 103.573C31.2038 106.909 34.5856 108.961 37.1763 110.737C40.3632 112.904 43.3208 114.635 47.184 113.569C49.7977 112.858 54.9792 111.574 56.7789 109.327C58.8424 106.737 59.2092 99.87 58.5558 96.7175C57.8221 93.416 55.2887 91.7309 52.4457 90.2407ZM51.0243 92.6595C52.4708 93.4602 53.6626 94.652 54.4633 96.0985C52.7782 96.4653 51.1045 96.9124 49.4194 97.3251C48.406 97.5067 47.412 97.783 46.4503 98.1505C45.0632 97.2907 43.5271 96.6603 42.1515 95.7661C40.7759 94.8719 39.3888 93.8976 38.0017 92.9805C41.7847 90.6419 47.4247 90.9399 51.0243 92.6595ZM33.3017 103.068C32.889 100.982 34.5512 96.6946 35.8695 94.8834C35.8695 94.8834 35.8695 94.8834 35.9612 94.9636C37.5661 96.0183 39.1366 97.1302 40.7529 98.1849C41.9681 98.9759 43.3208 99.5719 44.5818 100.294C43.2978 103.286 43.4354 106.897 42.4152 109.981C42.4152 109.981 42.4152 110.061 42.4152 110.107C41.0484 109.707 39.7527 109.096 38.5749 108.296C37.0273 107.275 33.7373 105.269 33.3017 103.08V103.068ZM52.3082 108.605C50.2113 110.037 47.7015 110.738 45.1664 110.6C46.0835 107.78 45.8657 104.421 47.0693 101.727C47.7228 100.248 49.362 100.248 50.7721 99.8929C52.1821 99.5376 53.9589 99.0561 55.5753 98.7466C56.131 100.527 56.1147 102.436 55.5287 104.207C54.9426 105.977 53.8163 107.52 52.3082 108.617V108.605Z" fill="black"/>
<path d="M49.1671 67.3022C50.4396 67.445 51.7189 67.0996 52.7466 66.3357C53.7743 65.5718 54.4738 64.4465 54.704 63.1868C55.2313 60.4929 53.6952 58.7046 51.2649 57.7646C51.0401 57.6704 50.7912 57.6503 50.5542 57.7073C47.9176 57.5353 45.1549 58.7619 44.5358 61.5705C43.9168 64.379 46.5649 66.9583 49.1671 67.3022ZM47.4017 61.9143C47.8373 60.5731 49.3964 60.4241 50.6115 60.5044C51.5859 60.9056 52.1705 61.5246 51.9527 62.6366C51.8525 63.191 51.5517 63.6891 51.1077 64.0358C50.6637 64.3826 50.1075 64.5537 49.5454 64.5166C48.4105 64.3561 47.0005 63.1524 47.4017 61.9143Z" fill="black"/>
<path d="M58.9566 73.0913C58.7318 72.9972 58.4829 72.9771 58.2459 73.034C55.6093 72.8621 52.8351 74.0887 52.2275 76.8972C51.6199 79.7058 54.1992 82.2851 56.8129 82.629C58.088 82.769 59.3688 82.4213 60.398 81.6557C61.4272 80.8902 62.1286 79.7636 62.3613 78.5022C62.8657 75.8197 61.3295 74.0428 58.9566 73.0913ZM59.5986 77.9633C59.4982 78.5198 59.1957 79.0196 58.7493 79.3666C58.3028 79.7136 57.7438 79.8834 57.1798 79.8434C56.0334 79.6943 54.6463 78.4792 55.0475 77.2411C55.4488 76.0031 57.0422 75.7509 58.2573 75.8311C59.2202 76.2324 59.8164 76.8514 59.5986 77.9633Z" fill="black"/>
<path d="M22.5719 93.588C22.3483 93.49 22.0993 93.4659 21.8611 93.5193C19.2245 93.3588 16.4618 94.5854 15.8428 97.3939C15.2238 100.202 17.826 102.77 20.4282 103.126C21.7019 103.265 22.9812 102.917 24.0085 102.152C25.0359 101.386 25.735 100.259 25.9651 98.9989C26.4924 96.3164 24.9448 94.5281 22.5719 93.588ZM23.2138 98.46C23.1259 99.0194 22.8278 99.5242 22.3805 99.8714C21.9332 100.219 21.3702 100.382 20.8065 100.329C19.6601 100.18 18.2616 98.9644 18.6628 97.7264C19.064 96.4883 20.6575 96.2361 21.8726 96.3278C22.1061 96.3727 22.3282 96.4641 22.5258 96.5964C22.7234 96.7287 22.8924 96.8994 23.0228 97.0982C23.1532 97.297 23.2424 97.52 23.285 97.7539C23.3277 97.9879 23.323 98.228 23.2711 98.46H23.2138Z" fill="black"/>
<path d="M74.8569 23.2136C75.1242 23.4728 75.4819 23.6177 75.8542 23.6177C76.2265 23.6177 76.5842 23.4728 76.8515 23.2136C78.5252 21.2304 80.2218 19.2702 81.735 17.1723C81.8869 16.902 81.9477 16.5899 81.9085 16.2823C81.8692 15.9747 81.732 15.6879 81.5172 15.4643C76.9318 10.1223 63.4278 -9.23958 57.5126 5.31908C55.495 10.2713 54.6353 16.0145 53.2826 21.1617C52.6788 23.4544 52.0751 25.7738 51.4714 28.12C34.769 28.12 18.0667 27.6729 1.36436 27.65C1.15038 27.6494 0.938948 27.6964 0.745342 27.7876C0.482775 27.8695 0.25841 28.0431 0.113201 28.2767C-0.0320078 28.5103 -0.0883828 28.7883 -0.045643 29.06C1.90315 50.0955 4.32194 71.0852 7.68075 91.9373C8.56726 97.394 9.51492 102.839 10.5237 108.273C11.0625 111.116 11.0052 115.999 13.0571 118.235C14.6162 119.943 17.333 119.61 19.4079 119.679C24.9907 119.851 30.5504 120.012 36.1446 119.989C41.0625 119.989 45.9803 119.885 50.8982 119.84C53.6724 119.84 58.2463 120.459 60.8256 119.117C66.3166 116.263 65.6632 105.453 66.4886 100.214C70.218 76.668 73.9475 53.1257 77.6769 29.5873C77.7304 29.3786 77.7362 29.1605 77.6937 28.9492C77.6513 28.7379 77.5617 28.5389 77.4317 28.3671C77.3017 28.1952 77.1346 28.0549 76.9429 27.9565C76.7511 27.8582 76.5397 27.8043 76.3242 27.799C71.6701 27.9595 67.0159 28.0283 62.3502 28.0741C63.4966 23.4887 64.8034 19.018 66.2249 14.5472C69.1252 17.4245 72.0369 20.3019 74.8569 23.2136ZM49.1443 49.6943C50.5314 43.4123 52.0675 37.1762 53.6609 30.94H58.808C57.2375 37.2679 55.7931 43.6186 54.2799 49.9465C52.5604 49.9236 50.8753 49.8319 49.1901 49.6943H49.1443ZM46.3242 49.4077C42.633 48.9836 38.9188 48.3416 35.2046 47.6653C24.5894 45.7394 15.1206 45.4528 4.73464 48.4104C4.08504 42.4417 3.47748 36.4654 2.91194 30.4815C18.8577 30.4815 34.8034 30.8942 50.7606 30.94C49.236 37.073 47.7228 43.2289 46.3701 49.4077H46.3242ZM65.9268 85.8846L63.7717 99.4689C63.1068 103.665 63.1298 109.087 61.6166 113.042C59.7366 117.96 55.3116 116.985 50.8982 117.031C46.4847 117.077 41.8879 117.146 37.3827 117.169C33.1412 117.169 28.8997 117.168 24.6582 117.065C22.6865 117.065 19.9926 117.398 18.0782 116.802C14.1691 115.587 14.5589 114.314 13.9513 111.219C12.2318 102.449 10.7415 93.6454 9.36589 84.8529C7.66929 73.6989 6.25929 62.499 5.00977 51.2763C18.9494 47.2297 30.7912 50.3821 44.685 52.2851C53.764 53.5346 63.0266 53.0417 71.6242 49.7173C69.7671 61.7539 67.8833 73.8097 65.9727 85.8846H65.9268ZM74.6735 30.6649C73.8328 35.9228 72.9998 41.1922 72.1745 46.4731C67.409 48.5645 62.2896 49.7316 57.0885 49.9121C58.6017 43.5957 60.0461 37.2449 61.6739 30.94C66.03 30.8598 70.3747 30.7566 74.7194 30.6649H74.6735ZM59.4385 28.1085H54.3831C54.8416 26.3317 55.3002 24.5549 55.7702 22.778C57.0999 17.6997 57.6617 10.386 60.3556 5.80056C63.8978 -0.194856 68.1049 4.91787 71.1886 8.09326C72.7705 9.75547 78.6972 14.765 78.5367 16.7711C78.445 17.7914 76.244 19.167 75.6823 20.1529C75.6135 20.0382 75.5677 19.935 75.4759 19.786C73.4469 16.5075 69.3315 13.5728 66.5803 10.856C66.4026 10.6869 66.1844 10.5662 65.9468 10.5056C65.7091 10.445 65.4599 10.4464 65.2229 10.5096C64.9859 10.5729 64.7691 10.6959 64.5933 10.867C64.4175 11.038 64.2886 11.2513 64.2188 11.4864C62.4649 17.0004 60.9173 22.5373 59.4843 28.1085H59.4385Z" fill="black"/>
<path d="M6.21313 39.6064C6.60289 41.3144 6.88949 43.0454 7.17608 44.7764C7.46266 46.5074 10.191 45.7967 9.89292 44.0198C9.59487 42.243 9.25096 40.1337 8.74657 38.2078C8.67779 37.9327 8.33387 37.2105 8.41412 36.9468L8.24217 36.7634L9.0217 36.7061C10.1168 36.6639 11.2135 36.7138 12.3002 36.8551C14.0886 37.0844 14.0771 34.2644 12.3002 34.0465C10.3285 33.8058 6.07557 33.1638 5.53678 35.9724C5.52222 37.2163 5.75201 38.451 6.21313 39.6064Z" fill="black"/>
<path d="M16.7024 37.222C17.053 37.1903 17.379 37.0287 17.6164 36.7688C17.8538 36.509 17.9854 36.1697 17.9854 35.8177C17.9854 35.4658 17.8538 35.1265 17.6164 34.8667C17.379 34.6068 17.053 34.4452 16.7024 34.4135C16.3519 34.4452 16.0259 34.6068 15.7885 34.8667C15.5511 35.1265 15.4194 35.4658 15.4194 35.8177C15.4194 36.1697 15.5511 36.509 15.7885 36.7688C16.0259 37.0287 16.3519 37.1903 16.7024 37.222Z" fill="black"/>
</g>
<defs>
<clipPath id="clip0_231_1140">
<rect width="81.987" height="120" fill="white"/>
</clipPath>
</defs>
</svg>
