<svg width="30" height="30" viewBox="0 0 30 30" fill="none" xmlns="http://www.w3.org/2000/svg">
<circle cx="15" cy="15" r="15" fill="black"/>
<path d="M5 7.75C5 7.55109 5.07902 7.36032 5.21967 7.21967C5.36032 7.07902 5.55109 7 5.75 7H6.308C7.258 7 7.828 7.639 8.153 8.233C8.37 8.629 8.527 9.088 8.65 9.504C8.68327 9.50137 8.71663 9.50004 8.75 9.5H21.248C22.078 9.5 22.678 10.294 22.45 11.093L20.622 17.502C20.4581 18.0769 20.1114 18.5827 19.6343 18.9428C19.1572 19.303 18.5758 19.4979 17.978 19.498H12.03C11.4275 19.498 10.8417 19.3002 10.3625 18.9349C9.8834 18.5696 9.5375 18.057 9.378 17.476L8.618 14.704L7.358 10.456L7.357 10.448C7.201 9.881 7.055 9.35 6.837 8.954C6.628 8.569 6.46 8.5 6.309 8.5H5.75C5.55109 8.5 5.36032 8.42098 5.21967 8.28033C5.07902 8.13968 5 7.94891 5 7.75ZM11.5 24.5C12.0304 24.5 12.5391 24.2893 12.9142 23.9142C13.2893 23.5391 13.5 23.0304 13.5 22.5C13.5 21.9696 13.2893 21.4609 12.9142 21.0858C12.5391 20.7107 12.0304 20.5 11.5 20.5C10.9696 20.5 10.4609 20.7107 10.0858 21.0858C9.71071 21.4609 9.5 21.9696 9.5 22.5C9.5 23.0304 9.71071 23.5391 10.0858 23.9142C10.4609 24.2893 10.9696 24.5 11.5 24.5ZM18.5 24.5C19.0304 24.5 19.5391 24.2893 19.9142 23.9142C20.2893 23.5391 20.5 23.0304 20.5 22.5C20.5 21.9696 20.2893 21.4609 19.9142 21.0858C19.5391 20.7107 19.0304 20.5 18.5 20.5C17.9696 20.5 17.4609 20.7107 17.0858 21.0858C16.7107 21.4609 16.5 21.9696 16.5 22.5C16.5 23.0304 16.7107 23.5391 17.0858 23.9142C17.4609 24.2893 17.9696 24.5 18.5 24.5Z" fill="white"/>
</svg>
