<svg width="90" height="100" viewBox="0 0 90 100" fill="none" xmlns="http://www.w3.org/2000/svg">
<g clip-path="url(#clip0_231_1133)">
<path d="M87.6073 14.4208C85.8885 13.4926 81.54 11.4128 79.529 12.3066C79.1245 12.496 78.7754 12.7861 78.5149 13.1489C77.5867 11.2066 75.0772 11.43 72.7225 11.241L71.6053 11.1378C72.2068 9.19559 72.7912 6.58301 70.4708 5.77518C68.6098 5.39597 66.7153 5.2059 64.816 5.20794C62.8631 4.73941 60.8825 4.39501 58.8861 4.1767C58.6781 4.17509 58.4733 4.22823 58.2922 4.33081C58.1112 4.43339 57.9604 4.58178 57.8548 4.76109C57.4458 5.76655 57.2244 6.83844 57.2017 7.92368C56.1386 7.69765 55.0569 7.57106 53.9704 7.54554C53.4891 5.22516 53.1969 -0.0172208 50.1374 -3.27326e-05C46.0654 -0.150154 41.9974 0.390354 38.1058 1.59849C37.8586 1.67643 37.6417 1.82897 37.4847 2.03517C37.3278 2.24137 37.2385 2.49109 37.2292 2.75006C37.2466 3.81583 37.3443 4.87877 37.5214 5.92986C35.8718 6.19628 34.2413 6.56946 32.64 7.04707C32.0728 7.16739 31.2306 7.21898 30.3884 7.33929C30.5181 6.86736 30.5407 6.3724 30.4544 5.89063C30.3682 5.40885 30.1753 4.95246 29.8899 4.55484C29.3822 4.21853 28.7791 4.05568 28.1711 4.09073C26.7789 4.09073 25.3523 3.98761 23.96 3.93604C22.2412 3.93604 19.4911 3.16258 18.202 4.69232C16.9129 6.22206 17.1879 9.95184 17.2567 11.98L16.6551 12.1348C16.4553 12.1894 16.2736 12.2962 16.1286 12.4442C15.9837 12.5922 15.8807 12.7761 15.8301 12.977C15.4918 15.7312 15.3254 18.5038 15.3316 21.2788C14.816 19.1818 14.3004 17.0677 13.7332 14.9879C12.6675 10.9488 10.8456 11.5503 6.96108 12.255C3.07658 12.9598 0.0858272 12.616 0.58428 16.8958C1.32012 22.5604 2.56853 28.1465 4.31411 33.5854H2.47497H2.38906H2.23437L1.94215 33.6714C-0.275107 34.8402 0.0686433 36.1636 0.0514553 38.484C0.170124 43.2438 0.537327 47.9942 1.15151 52.7157C1.97648 61.9223 3.31927 71.0751 5.17351 80.1306C6.32511 85.5105 6.89232 96.4937 13.08 98.5562C16.5176 99.7078 21.674 99.4328 25.421 99.6734C30.4227 100 35.4416 99.8625 40.4433 99.6734C48.6936 99.3984 57.0298 100.12 65.2629 99.6734C70.6255 99.3297 75.7648 98.453 78.3258 93.2451C82.0384 85.6651 82.9837 75.6445 84.1182 67.463C85.5276 57.1502 86.2323 46.6999 86.9026 36.2839C86.9026 35.9648 86.7759 35.6588 86.5502 35.4332C86.3246 35.2076 86.0186 35.0808 85.6995 35.0808H84.4963C86.0088 30.2681 87.3839 25.4211 88.5871 20.5225C89.1543 17.9271 90.2543 15.7614 87.6073 14.4208ZM76.4351 14.6098C77.0539 15.5036 76.5898 18.924 76.4351 20.7288C76.4245 20.7565 76.4245 20.787 76.4351 20.8147C76.3929 20.984 76.3929 21.161 76.4351 21.3303C76.4351 21.3303 76.4351 21.4335 76.4351 21.4679L76.3492 34.5479C73.8913 34.4104 71.4506 34.2901 68.9927 34.187C68.924 30.2337 68.924 26.2805 68.9927 22.3273C68.9927 20.2819 68.9927 18.1334 69.2677 16.1052C69.6459 13.252 69.8693 13.3895 72.7053 13.6473C74.2179 13.7848 75.8679 13.7848 76.5039 14.6098H76.4351ZM66.5348 34.0667H65.3488C65.7614 32.5713 66.1395 31.076 66.4661 29.5634C66.4832 31.0416 66.5005 32.5541 66.5348 34.0667ZM66.0192 7.75179C66.9645 7.85492 68.9927 7.61429 69.4568 8.40494C69.9208 9.19559 69.3537 10.3644 69.113 11.1206C67.8583 11.3956 67.188 12.255 66.9989 14.5582C66.8614 16.002 66.7754 17.4459 66.7067 18.8897C64.9879 23.7539 64.3863 28.8587 62.9425 33.7745L57.7861 33.5854C59.1777 26.365 60.0337 19.0517 60.3471 11.7051C60.392 11.2153 60.3358 10.7216 60.1821 10.2545C60.0283 9.78732 59.7802 9.35671 59.4533 8.98933C59.4533 8.98933 59.4533 8.98933 59.4533 8.88621C59.4533 8.19868 59.4533 7.27052 59.694 6.51425C61.7909 6.82363 63.9738 7.54553 66.0192 7.75179ZM57.1673 17.274C56.9128 22.6659 56.3388 28.038 55.4485 33.362C55.4399 33.4534 55.4399 33.5455 55.4485 33.637C52.9734 33.637 50.4812 33.4823 47.9889 33.4307L50.1031 23.1179C50.6531 20.385 52.2 16.5521 51.9937 13.7332C51.988 13.3259 51.8775 12.9269 51.6727 12.5746C51.468 12.2224 51.176 11.9288 50.8249 11.7222C50.8249 9.57372 55.397 9.55656 56.7892 10.6222C58.422 11.9285 57.2876 15.5208 57.1673 17.274ZM40.1683 21.6398C40.4261 20.0241 40.6496 18.4084 40.8559 16.7755C40.959 15.9849 40.8559 13.991 41.3199 13.3379C41.784 12.6848 41.5434 13.3379 42.4716 13.0973C44.1244 12.9878 45.7841 13.1445 47.3873 13.5614C50.0858 14.4551 48.8827 16.913 48.4186 19.1647C47.4561 23.8226 46.5107 28.4977 45.5482 33.1557C45.5395 33.2127 45.5395 33.2706 45.5482 33.3276L37.8995 33.2073C38.7761 29.3915 39.5667 25.5414 40.1683 21.6398ZM50.0687 2.38913C50.7601 4.04077 51.2395 5.77337 51.4953 7.54554L49.914 7.42521C49.6493 7.4199 49.3904 7.50334 49.1786 7.6622C48.9668 7.82106 48.8142 8.04621 48.7452 8.30182C48.5734 9.24463 48.4643 10.1978 48.4186 11.155C47.1467 11.0519 45.7716 11.155 44.7404 11.0347C43.5645 10.8404 42.3742 10.7484 41.1825 10.7597C41.0912 9.50377 40.74 8.2805 40.1512 7.1674C40.1598 7.05872 40.1598 6.94951 40.1512 6.84082C39.921 5.8066 39.7829 4.75404 39.7386 3.69544C41.8293 3.12791 43.9836 2.82756 46.1498 2.80163C47.4045 2.6985 48.7624 2.40632 50.0687 2.38913ZM38.9824 12.2207C39.0015 12.3255 39.0424 12.425 39.1027 12.5129C39.0055 12.7885 38.9251 13.0697 38.8621 13.3551C37.4011 19.8006 36.9886 26.5211 35.4245 33.0182C35.416 33.081 35.416 33.1445 35.4245 33.2073H32.7431C32.2275 27.3633 31.4884 21.5538 30.5602 15.7614C30.3883 14.6614 29.443 11.5331 29.7868 10.6909C30.1306 9.84871 31.1446 9.81438 32.3821 9.55656C36.1979 8.88623 38.2261 7.85493 38.9824 12.2207ZM19.8693 7.30488C20.024 5.99859 20.3506 6.27361 21.4162 6.23923C22.4819 6.20486 23.135 6.23923 23.9772 6.34236C25.2663 6.34236 26.6757 6.56581 27.982 6.51425C27.9905 6.57123 27.9905 6.62916 27.982 6.68614C27.8672 7.39102 27.804 8.10334 27.793 8.81744C26.9851 10.4503 27.7929 12.9941 28.0336 14.5067C29.0477 20.7116 29.8727 26.9165 30.4227 33.1729H25.8851C26.057 29.7353 26.1945 26.2977 26.2289 22.8601C26.2289 20.2303 27.0367 16.1567 26.0054 13.7676C25.1976 11.9113 22.2584 11.4988 19.6974 11.6535C19.6596 10.2017 19.7169 8.74909 19.8693 7.30488ZM17.4286 28.5837C17.7208 25.782 17.7208 22.9804 17.7723 20.1788C17.8239 17.3771 17.2395 13.2004 21.2099 14.3348C23.4272 14.9708 23.4272 15.6239 23.7366 17.8756C23.8569 19.5292 23.8569 21.1893 23.7366 22.8429C23.7366 26.2805 23.5647 29.7181 23.3928 33.1557H18.2364L17.2051 28.9447C17.2933 28.8334 17.3683 28.7122 17.4286 28.5837ZM4.00474 22.8257C3.5913 21.2898 3.32086 19.7191 3.1969 18.1334C3.1969 14.9708 4.91571 14.6958 7.61423 14.5754C11.344 14.4379 11.5159 15.9161 12.2206 18.7865L13.4066 23.5476L15.8301 33.2932C12.8394 33.2932 9.83145 33.4135 6.82355 33.5166C5.6972 30.0049 4.75632 26.4363 4.00474 22.8257ZM82.9494 56.2736C81.8665 67.4459 81.2306 81.1619 76.4007 91.5091C72.3272 100.292 58.3705 97.1811 50.4468 97.1811C40.2371 97.1811 30.1305 98.0406 19.938 96.8718C16.6895 96.4936 13.3206 96.8717 11.0862 93.6232C9.77991 91.7325 9.36742 87.934 8.85177 85.7168C7.57986 80.5603 6.56574 75.4039 5.70633 70.2475C4.77818 64.4552 4.07347 58.6284 3.50627 52.8016C3.28282 50.5328 0.910861 37.7965 2.95624 35.9917C25.1288 35.2011 47.3186 35.4245 69.4912 36.5418C72.5335 36.6964 75.5929 36.8512 78.6352 37.0402C82.7603 37.2809 83.7916 36.5933 84.1526 40.7013C84.651 45.6514 83.3791 51.3579 82.9494 56.2736ZM84.4275 26.693C83.6541 29.4431 82.8291 32.1588 81.9697 34.8745L78.7039 34.6855C78.7039 31.1104 78.7039 27.5181 78.7039 23.9429C78.7039 22.8257 78.7899 21.6225 78.8414 20.4194C79.1164 18.7006 79.4087 15.9505 80.2337 15.1427C81.0587 14.3348 82.8806 15.1426 83.7916 15.6411C85.5104 16.4317 86.3354 16.9474 86.3354 19.0787C86.0013 21.683 85.3609 24.2388 84.4275 26.693Z" fill="black"/>
<path d="M43.8467 47.1811C37.7449 47.4218 31.4197 47.2671 26.3664 51.2031C24.1792 52.9245 22.4039 55.1124 21.1699 57.6072C19.9359 60.102 19.2743 62.8409 19.2334 65.6239C19.2334 80.8697 39.309 81.3338 50.0859 81.0932C55.8611 80.9728 61.6879 79.9415 65.5552 75.1976C68.4943 71.5538 71.2444 65.3833 70.1959 60.6738C67.6177 49.725 52.9907 46.8546 43.8467 47.1811ZM65.1083 71.5194C61.8254 77.2946 56.2736 78.5493 50.0859 78.6868C40.8903 78.893 25.0773 79.4947 22.2929 68.2365C21.6412 65.4259 21.8353 62.4855 22.8507 59.7849C23.866 57.0844 25.6574 54.7445 27.9993 53.0595C32.6573 49.6219 38.3121 49.8109 43.8467 49.6219C51.4782 49.364 58.319 50.5156 64.1457 55.9298C68.7865 60.2956 67.9959 66.2599 65.0224 71.5194H65.1083Z" fill="black"/>
<path d="M28.1023 62.1691C28.2913 60.6394 25.885 60.6566 25.696 62.1691C25.3402 64.0097 25.3897 65.9057 25.8408 67.7252C26.292 69.5448 27.1341 71.2442 28.3085 72.7054C29.3226 73.8742 31.0242 72.1726 30.0273 70.9866C29.0942 69.7402 28.4395 68.308 28.1074 66.7869C27.7753 65.2657 27.7736 63.691 28.1023 62.1691Z" fill="black"/>
<path d="M28.0508 58.8174C28.3699 58.8174 28.676 58.6907 28.9016 58.4651C29.1272 58.2394 29.254 57.9334 29.254 57.6143C29.254 57.2952 29.1272 56.9892 28.9016 56.7635C28.676 56.5379 28.3699 56.4111 28.0508 56.4111C27.7317 56.4111 27.4257 56.5379 27.2001 56.7635C26.9745 56.9892 26.8477 57.2952 26.8477 57.6143C26.8477 57.9334 26.9745 58.2394 27.2001 58.4651C27.4257 58.6907 27.7317 58.8174 28.0508 58.8174Z" fill="black"/>
</g>
<defs>
<clipPath id="clip0_231_1133">
<rect width="89.2919" height="100" fill="white"/>
</clipPath>
</defs>
</svg>
