<svg width="119" height="100" viewBox="0 0 119 100" fill="none" xmlns="http://www.w3.org/2000/svg">
<g clip-path="url(#clip0_231_1117)">
<path d="M111.9 53.652C113.553 52.2107 114.613 50.2078 114.875 48.0304C117.152 32.2118 103.426 16.5367 90.6237 9.45833C74.9487 0.820663 58.4736 -2.33894 40.8084 1.78498C30.037 4.30858 22.3431 10.4842 15.5314 18.9167C9.95077 25.7284 3.61103 34.7559 3.52896 43.9885C3.52896 46.8404 4.14446 52.5851 6.17565 54.5958C6.33978 54.7599 6.58599 54.9036 6.79116 55.0677C3.05706 57.4682 -1.72341 62.1256 0.636053 66.2905C1.26693 67.1211 2.11205 67.7643 3.08075 68.1511C4.04944 68.5378 5.10516 68.6536 6.13463 68.4859C6.99299 68.3476 7.82829 68.0921 8.61718 67.7267C8.32994 71.0915 8.43252 75.4821 10.4432 78.334C7.59132 78.8264 4.7805 79.9138 3.75465 82.6015C2.44156 86.0894 3.46741 94.2142 6.66807 96.6762C8.42929 97.6283 10.4118 98.0957 12.4128 98.0304C17.0497 98.6048 21.584 99.2203 26.2618 99.364C36.9102 99.6512 47.579 99.9384 58.2479 99.9794C68.9167 100.02 79.7497 99.7948 90.5007 99.3229C96.6558 99.0562 105.663 99.3229 111.161 95.6298C114.998 93.0037 115.552 87.1769 114.341 82.9709C113.911 81.2902 112.945 79.795 111.591 78.7107C110.237 77.6265 108.566 77.0118 106.832 76.9593C108.291 75.7404 109.337 74.101 109.83 72.265C110.322 70.429 110.235 68.4858 109.581 66.7008C110.019 66.9792 110.52 67.1416 111.038 67.1727C112.213 67.075 113.355 66.739 114.396 66.1852C115.437 65.6314 116.353 64.8714 117.091 63.9516C120.599 59.5404 115.901 55.8268 111.9 53.652ZM8.12479 36.7049C12.1051 25.4206 21.6865 13.1309 32.499 7.71437C42.2446 2.85184 55.8269 1.55928 66.5162 3.30322C81.7399 5.76527 98.4818 14.8543 106.607 28.2109C109.655 33.1278 111.496 38.6958 111.982 44.4604C112.495 53.652 102.996 54.5753 95.8146 55.0472C84.0378 55.8473 72.3021 55.7448 60.5048 55.5806C49.5897 55.478 38.6746 55.4781 27.7801 55.2729C22.4251 55.2729 11.3665 56.2577 7.75547 51.4362C5.00618 47.661 6.8117 40.4596 8.12479 36.7049ZM111.551 83.73C112.556 86.4382 111.982 91.2187 109.684 93.1473C106.586 95.7735 99.8975 95.9376 96.0813 96.1838C83.5043 97.025 70.8248 97.1481 58.2274 97.1071C46.5942 97.1071 34.879 97.1071 23.3484 96.389C18.4038 96.1017 8.9865 96.5736 6.9348 91.2597C4.69844 85.1046 8.12479 81.3295 14.0542 80.8576C16.3784 81.3057 18.7474 81.4779 21.112 81.3705C35.474 81.8835 49.8359 82.8683 64.1978 81.9245C71.5634 81.4526 78.888 80.7755 86.2741 80.7345C91.8343 80.7345 97.2302 81.5347 102.483 79.5035C106.094 79.565 109.93 79.3188 111.551 83.73ZM84.879 77.8826C75.831 77.8826 66.865 79.0931 57.817 79.3393C49.3435 79.565 40.8494 79.2162 32.3964 78.9085L19.881 78.4571C12.6796 78.2109 10.8535 73.6151 11.428 67.2343C14.0131 67.6446 13.808 69.6758 15.3263 71.5018C19.7169 76.7747 26.508 72.8765 30.6114 69.6553C33.4838 67.3984 35.1252 66.0033 38.8182 67.8088C40.1724 68.4653 41.1777 69.6348 42.6344 70.1887C45.8761 71.3787 47.9278 69.9425 50.9849 69.0808C58.6582 66.9265 58.4325 68.3012 64.1568 71.1325C65.5965 71.8507 67.1195 72.3882 68.691 72.7328C72.4302 73.4811 76.3141 72.8314 79.6061 70.9069C83.9557 68.5064 84.961 66.1059 91.2392 68.1576C92.3882 68.5269 93.291 69.4296 94.522 69.7784C95.65 70.2186 96.8769 70.3424 98.0701 70.1363C99.2634 69.9302 100.378 69.4021 101.293 68.609C103.057 67.2548 103.98 65.9827 105.95 65.8186C113.316 78.97 91.6701 77.8006 84.961 77.8826H84.879ZM109.089 63.4182C107.304 63.0078 106.278 61.5921 104.247 62.064C102.79 62.4128 102.052 63.9926 100.923 64.8133C100.054 65.6749 98.9658 66.2831 97.7764 66.5723C96.587 66.8615 95.3412 66.8208 94.1732 66.4546C93.0243 66.1264 91.9573 65.162 90.7879 64.7722C85.556 63.0488 82.5811 65.9622 78.1699 68.4038C72.5482 71.5018 67.4805 69.4706 62.3513 66.6393C60.316 65.2529 57.8991 64.5357 55.4371 64.5876C52.0723 64.8543 49.5692 66.6393 46.1018 66.7829C41.5265 67.0291 41.4649 65.039 37.6693 63.9926C33.8736 62.9463 31.3911 65.5109 28.5802 67.6241C25.7694 69.7374 25.3386 70.2298 21.03 69.4296C15.4494 68.4038 18.0345 68.7115 15.5519 65.7981C14.8699 64.9497 13.9473 64.3275 12.9052 64.0131C10.8535 63.5412 9.29423 65.2031 7.42719 65.2441C-0.923246 65.4903 6.44237 58.3914 9.86872 56.5654C13.317 57.3565 16.8365 57.7964 20.3734 57.8785C33.6274 58.8633 47.0456 58.3299 60.4227 58.453C72.5893 58.6377 84.7354 58.7403 96.902 57.8375C101.058 57.7512 105.167 56.946 109.048 55.4575C110.423 56.1141 114.362 58.0427 114.793 59.5609C115.88 62.9668 111.408 63.9106 109.171 63.4182H109.089Z" fill="black"/>
<path d="M111.9 53.652C113.553 52.2107 114.613 50.2078 114.875 48.0304C117.152 32.2118 103.426 16.5367 90.6237 9.45833C74.9487 0.820663 58.4736 -2.33894 40.8084 1.78498C30.037 4.30858 22.3431 10.4842 15.5314 18.9167C9.95077 25.7284 3.61103 34.7559 3.52896 43.9885C3.52896 46.8404 4.14446 52.5851 6.17565 54.5958C6.33978 54.7599 6.58599 54.9036 6.79116 55.0677C3.05706 57.4682 -1.72341 62.1256 0.636053 66.2905C1.26693 67.1211 2.11205 67.7643 3.08075 68.1511C4.04944 68.5378 5.10516 68.6536 6.13463 68.4859C6.99299 68.3476 7.82829 68.0921 8.61718 67.7267C8.32994 71.0915 8.43252 75.4821 10.4432 78.334C7.59132 78.8264 4.7805 79.9138 3.75465 82.6015C2.44156 86.0894 3.46741 94.2142 6.66807 96.6762C8.42929 97.6283 10.4118 98.0957 12.4128 98.0304C17.0497 98.6048 21.584 99.2203 26.2618 99.364C36.9102 99.6512 47.579 99.9384 58.2479 99.9794C68.9167 100.02 79.7497 99.7948 90.5007 99.3229C96.6558 99.0562 105.663 99.3229 111.161 95.6298C114.998 93.0037 115.552 87.1769 114.341 82.9709C113.911 81.2902 112.945 79.795 111.591 78.7107C110.237 77.6265 108.566 77.0118 106.832 76.9593C108.291 75.7404 109.337 74.101 109.83 72.265C110.322 70.429 110.235 68.4858 109.581 66.7008C110.019 66.9792 110.52 67.1416 111.038 67.1727C112.213 67.075 113.355 66.739 114.396 66.1852C115.437 65.6314 116.353 64.8714 117.091 63.9516C120.599 59.5404 115.901 55.8268 111.9 53.652ZM8.12479 36.7049C12.1051 25.4206 21.6865 13.1309 32.499 7.71437C42.2446 2.85184 55.8269 1.55928 66.5162 3.30322C81.7399 5.76527 98.4818 14.8543 106.607 28.2109C109.655 33.1278 111.496 38.6958 111.982 44.4604C112.495 53.652 102.996 54.5753 95.8146 55.0472C84.0378 55.8473 72.3021 55.7448 60.5048 55.5806C49.5897 55.478 38.6746 55.4781 27.7801 55.2729C22.4251 55.2729 11.3665 56.2577 7.75547 51.4362C5.00618 47.661 6.8117 40.4596 8.12479 36.7049ZM111.551 83.73C112.556 86.4382 111.982 91.2187 109.684 93.1473C106.586 95.7735 99.8975 95.9376 96.0813 96.1838C83.5043 97.025 70.8248 97.1481 58.2274 97.1071C46.5942 97.1071 34.879 97.1071 23.3484 96.389C18.4038 96.1017 8.9865 96.5736 6.9348 91.2597C4.69844 85.1046 8.12479 81.3295 14.0542 80.8576C16.3784 81.3057 18.7474 81.4779 21.112 81.3705C35.474 81.8835 49.8359 82.8683 64.1978 81.9245C71.5634 81.4526 78.888 80.7755 86.2741 80.7345C91.8343 80.7345 97.2302 81.5347 102.483 79.5035C106.094 79.565 109.93 79.3188 111.551 83.73ZM84.879 77.8826C75.831 77.8826 66.865 79.0931 57.817 79.3393C49.3435 79.565 40.8494 79.2162 32.3964 78.9085L19.881 78.4571C12.6796 78.2109 10.8535 73.6151 11.428 67.2343C14.0131 67.6446 13.808 69.6758 15.3263 71.5018C19.7169 76.7747 26.508 72.8765 30.6114 69.6553C33.4838 67.3984 35.1252 66.0033 38.8182 67.8088C40.1724 68.4653 41.1777 69.6348 42.6344 70.1887C45.8761 71.3787 47.9278 69.9425 50.9849 69.0808C58.6582 66.9265 58.4325 68.3012 64.1568 71.1325C65.5965 71.8507 67.1195 72.3882 68.691 72.7328C72.4302 73.4811 76.3141 72.8314 79.6061 70.9069C83.9557 68.5064 84.961 66.1059 91.2392 68.1576C92.3882 68.5269 93.291 69.4296 94.522 69.7784C95.65 70.2186 96.8769 70.3424 98.0701 70.1363C99.2634 69.9302 100.378 69.4021 101.293 68.609C103.057 67.2548 103.98 65.9827 105.95 65.8186C113.316 78.97 91.6701 77.8006 84.961 77.8826H84.879ZM109.089 63.4182C107.304 63.0078 106.278 61.5921 104.247 62.064C102.79 62.4128 102.052 63.9926 100.923 64.8133C100.054 65.6749 98.9658 66.2831 97.7764 66.5723C96.587 66.8615 95.3412 66.8208 94.1732 66.4546C93.0243 66.1264 91.9573 65.162 90.7879 64.7722C85.556 63.0488 82.5811 65.9622 78.1699 68.4038C72.5482 71.5018 67.4805 69.4706 62.3513 66.6393C60.316 65.2529 57.8991 64.5357 55.4371 64.5876C52.0723 64.8543 49.5692 66.6393 46.1018 66.7829C41.5265 67.0291 41.4649 65.039 37.6693 63.9926C33.8736 62.9463 31.3911 65.5109 28.5802 67.6241C25.7694 69.7374 25.3386 70.2298 21.03 69.4296C15.4494 68.4038 18.0345 68.7115 15.5519 65.7981C14.8699 64.9497 13.9473 64.3275 12.9052 64.0131C10.8535 63.5412 9.29423 65.2031 7.42719 65.2441C-0.923246 65.4903 6.44237 58.3914 9.86872 56.5654C13.317 57.3565 16.8365 57.7964 20.3734 57.8785C33.6274 58.8633 47.0456 58.3299 60.4227 58.453C72.5893 58.6377 84.7354 58.7403 96.902 57.8375C101.058 57.7512 105.167 56.946 109.048 55.4575C110.423 56.1141 114.362 58.0427 114.793 59.5609C115.88 62.9668 111.408 63.9106 109.171 63.4182H109.089Z" fill="black"/>
<path d="M22.5687 51.4773C24.3947 51.4773 24.4152 48.5228 22.5687 48.6049C19.3475 48.728 13.377 49.2614 13.931 44.5015C14.6541 41.2168 16.3315 38.219 18.7525 35.8843C20.0245 34.5507 18.0139 32.5195 16.7008 33.8326C13.8079 36.8896 9.78655 42.7985 10.7714 47.3533C11.7562 51.9081 19.2039 51.6209 22.5687 51.4773Z" fill="black"/>
<path d="M29.2575 51.4977C29.6384 51.4977 30.0037 51.3464 30.273 51.0771C30.5424 50.8078 30.6937 50.4425 30.6937 50.0616C30.6937 49.6807 30.5424 49.3154 30.273 49.0461C30.0037 48.7767 29.6384 48.6254 29.2575 48.6254C28.8766 48.6254 28.5113 48.7767 28.242 49.0461C27.9726 49.3154 27.8213 49.6807 27.8213 50.0616C27.8213 50.4425 27.9726 50.8078 28.242 51.0771C28.5113 51.3464 28.8766 51.4977 29.2575 51.4977Z" fill="black"/>
<path d="M35.4943 14.5055C35.8719 14.4951 36.2312 14.3405 36.4984 14.0734C36.7655 13.8063 36.9201 13.447 36.9305 13.0693L37.1151 11.51C37.1151 11.1291 36.9638 10.7638 36.6945 10.4945C36.4252 10.2251 36.0598 10.0739 35.6789 10.0739C35.3013 10.0842 34.942 10.2388 34.6749 10.5059C34.4077 10.7731 34.2531 11.1324 34.2428 11.51L34.0581 13.0693C34.0581 13.4502 34.2094 13.8155 34.4787 14.0848C34.7481 14.3542 35.1134 14.5055 35.4943 14.5055Z" fill="black"/>
<path d="M51.1491 11.6127C51.5926 11.2706 52.0747 10.9814 52.5853 10.751C54.2472 9.97132 52.7904 7.48877 51.1285 8.26842C50.3936 8.62062 49.7045 9.06158 49.0768 9.58148C47.6817 10.7509 49.7334 12.7822 51.1491 11.6127Z" fill="black"/>
<path d="M66.5571 11.0998C68.219 11.8794 69.6758 9.3968 68.0139 8.61715C67.23 8.24849 66.4814 7.809 65.7776 7.30409C64.2593 6.23721 62.8231 8.74027 64.3208 9.78664C65.0351 10.2754 65.7823 10.7142 66.5571 11.0998Z" fill="black"/>
<path d="M76.8774 14.6697C77.1974 14.3489 77.6037 14.1279 78.0469 14.0337C79.8524 13.6233 79.0933 10.8535 77.2878 11.2639C76.3614 11.4846 75.5154 11.9609 74.8463 12.6385C73.5127 13.9311 75.5438 15.9623 76.8774 14.6697Z" fill="black"/>
<path d="M58.7811 22.7328C59.9301 24.169 61.9613 22.1173 60.8328 20.6811C60.5791 20.3627 60.2976 20.0675 59.9917 19.7989C58.617 18.5474 56.5858 20.5785 57.94 21.8506C58.2459 22.1192 58.5274 22.4144 58.7811 22.7328Z" fill="black"/>
<path d="M41.896 22.3225C42.26 21.9093 42.6985 21.5682 43.1886 21.3171C44.8299 20.4554 43.3732 17.9729 41.7318 18.8346C41.0251 19.201 40.3921 19.6948 39.8648 20.2913C38.6133 21.6454 40.6444 23.6971 41.896 22.3225Z" fill="black"/>
<path d="M71.953 23.0817C73.5943 23.9229 75.0511 21.4403 73.4097 20.5991C72.8336 20.3253 72.349 19.8907 72.0145 19.3475C71.0092 17.8088 68.5266 19.2449 69.532 20.8042C70.1205 21.7664 70.9566 22.553 71.953 23.0817Z" fill="black"/>
<path d="M27.5131 21.7276C27.5262 21.5638 27.573 21.4045 27.6507 21.2597C27.7284 21.115 27.8352 20.9878 27.9645 20.8864C29.4622 19.84 27.9645 17.3369 26.5078 18.4038C25.6056 18.9938 24.9718 19.915 24.7433 20.9685C24.415 22.774 27.1848 23.5741 27.5131 21.7276Z" fill="black"/>
<path d="M84.7351 20.0042C86.1303 21.1942 88.182 19.163 86.7868 17.9525L85.4942 16.8855C84.0785 15.7161 82.0474 17.7473 83.4425 18.9372L84.7351 20.0042Z" fill="black"/>
</g>
<defs>
<clipPath id="clip0_231_1117">
<rect width="118.322" height="100" fill="white"/>
</clipPath>
</defs>
</svg>
