<svg id="Capa_1" data-name="Capa 1" xmlns="http://www.w3.org/2000/svg" viewBox="0 0 135 135"><defs><style>.cls-1{fill:#010101;}</style></defs><path class="cls-1" d="M331.13,395.43a14.11,14.11,0,0,0-8.06-8.06,23.4,23.4,0,0,0-7.9-1.46c-4.48-.21-5.82-.25-17.17-.25s-12.69,0-17.17.25a23.4,23.4,0,0,0-7.9,1.46,14.11,14.11,0,0,0-8.06,8.06,23.4,23.4,0,0,0-1.46,7.9c-.21,4.48-.25,5.82-.25,17.17s0,12.69.25,17.17a23.4,23.4,0,0,0,1.46,7.9,14.11,14.11,0,0,0,8.06,8.06,23.4,23.4,0,0,0,7.9,1.46c4.48.21,5.82.25,17.17.25s12.69,0,17.17-.25a23.4,23.4,0,0,0,7.9-1.46,14.11,14.11,0,0,0,8.06-8.06,23.4,23.4,0,0,0,1.46-7.9c.21-4.48.25-5.82.25-17.17s0-12.69-.25-17.17A23.4,23.4,0,0,0,331.13,395.43ZM298,442.32a21.82,21.82,0,1,1,21.82-21.82A21.82,21.82,0,0,1,298,442.32Zm22.69-39.41a5.1,5.1,0,1,1,5.1-5.1A5.1,5.1,0,0,1,320.69,402.91ZM298,406.33a14.17,14.17,0,1,0,14.17,14.17A14.18,14.18,0,0,0,298,406.33ZM298,353a67.5,67.5,0,1,0,67.5,67.5A67.5,67.5,0,0,0,298,353Zm42.24,85a31,31,0,0,1-2,10.32,21.7,21.7,0,0,1-12.43,12.43,31,31,0,0,1-10.32,2c-4.53.21-6,.26-17.52.26s-13-.05-17.52-.26a31,31,0,0,1-10.32-2,21.7,21.7,0,0,1-12.43-12.43,31,31,0,0,1-2-10.32c-.21-4.53-.26-6-.26-17.52s.05-13,.26-17.52a31,31,0,0,1,2-10.32,21.7,21.7,0,0,1,12.43-12.43,31,31,0,0,1,10.32-2c4.53-.21,6-.26,17.52-.26s13,.05,17.52.26a31,31,0,0,1,10.32,2,21.7,21.7,0,0,1,12.43,12.43,31,31,0,0,1,2,10.32c.21,4.53.26,6,.26,17.52S340.45,433.49,340.24,438Z" transform="translate(-230.5 -353)"/></svg>