<?xml version="1.0" encoding="iso-8859-1"?>
<!-- Generator: Adobe Illustrator 16.0.3, SVG Export Plug-In . SVG Version: 6.00 Build 0)  -->
<!DOCTYPE svg PUBLIC "-//W3C//DTD SVG 1.1//EN" "http://www.w3.org/Graphics/SVG/1.1/DTD/svg11.dtd">
<svg version="1.1" id="Capa_1" xmlns="http://www.w3.org/2000/svg" xmlns:xlink="http://www.w3.org/1999/xlink" x="0px" y="0px"
	 width="138.93px" height="164.55px" viewBox="0 0 138.93 164.55" style="enable-background:new 0 0 138.93 164.55;"
	 xml:space="preserve">
<path style="fill:#F9B334;" d="M131.517,94.751c-2.796,6.979-6.854,13.436-12.009,19.008c-0.661,0.715-1.495,1.248-2.408,1.58
	l-49.254,17.934c-8.055-0.826-15.829-3.23-22.886-7.02c-4.701-2.523-4.194-9.434,0.82-11.256l77.875-28.347
	C128.671,84.825,133.502,89.796,131.517,94.751"/>
<path style="fill:#F9B334;" d="M53.015,13.73c-25.288,9.199-40.922,33.194-40.669,58.655c0.042,4.253,4.306,7.18,8.303,5.725
	l49.272-17.926l49.284-17.941c3.964-1.443,5.401-6.387,2.727-9.65C105.77,12.873,78.333,4.507,53.015,13.73 M32.759,64.736
	c-1.41,0.909-3.166,0.243-3.693-1.202c-0.063-0.173-0.112-0.333-0.137-0.495l-0.013-0.297l-0.234-4.026
	c-0.071-1.225,1.494-1.792,2.225-0.806l2.286,3.09c0.309,0.332,0.537,0.744,0.632,1.269C33.994,63.212,33.564,64.218,32.759,64.736
	 M40.076,48.952c-1.397,0.84-3.103,0.173-3.633-1.261c-0.05-0.161-0.1-0.334-0.124-0.494L36.307,46.9l-0.247-4.018
	c-0.074-1.235,1.495-1.805,2.236-0.815l2.287,3.09c0.31,0.346,0.556,0.792,0.63,1.334C41.361,47.444,40.904,48.445,40.076,48.952
	 M47.548,33.047c-1.398,0.932-3.184,0.267-3.715-1.2c-0.062-0.16-0.111-0.334-0.124-0.494l-0.023-0.297l-0.235-4.017
	c-0.074-1.223,1.495-1.792,2.224-0.803l2.286,3.077c0.313,0.348,0.542,0.765,0.635,1.286C48.761,31.531,48.336,32.523,47.548,33.047
	 M56.016,56.26c-1.4,0.945-3.196,0.28-3.729-1.179c-0.063-0.173-0.111-0.333-0.124-0.494L52.15,54.29l-0.247-4.029
	c-0.075-1.225,1.49-1.795,2.22-0.809l2.291,3.095c0.304,0.328,0.531,0.734,0.627,1.249C57.216,54.73,56.803,55.729,56.016,56.26
	 M59.676,39.237c-0.062-0.161-0.11-0.334-0.136-0.494l-0.012-0.297l-0.235-4.017c-0.037-0.617,0.334-1.063,0.803-1.235
	c0.471-0.187,1.052-0.074,1.423,0.42l2.285,3.09c0.422,0.455,0.695,1.059,0.679,1.897c-0.016,0.733-0.413,1.418-1.036,1.806
	c-0.2,0.125-0.393,0.235-0.606,0.301C61.555,41.19,60.146,40.522,59.676,39.237 M70.533,24.74c-1.365,0.705-2.967,0.035-3.479-1.346
	c-0.049-0.161-0.099-0.334-0.124-0.495l-0.012-0.296l-0.247-4.018c-0.074-1.223,1.495-1.792,2.237-0.814l2.286,3.089
	c0.366,0.425,0.645,0.954,0.652,1.647C71.857,23.423,71.346,24.321,70.533,24.74 M79.102,47.9c-1.39,0.804-3.067,0.136-3.595-1.284
	c-0.049-0.161-0.099-0.321-0.123-0.482l-0.013-0.297l-0.247-4.027c-0.074-1.225,1.495-1.793,2.237-0.805l2.286,3.09
	c0.332,0.357,0.57,0.807,0.637,1.389C80.392,46.433,79.929,47.419,79.102,47.9 M86.593,31.993c-1.406,0.912-3.169,0.246-3.695-1.209
	c-0.062-0.161-0.111-0.334-0.123-0.494l-0.014-0.297l-0.247-4.022c-0.075-1.227,1.493-1.798,2.226-0.81l2.286,3.089
	c0.308,0.333,0.537,0.744,0.631,1.27C87.826,30.463,87.398,31.47,86.593,31.993 M102.455,39.363
	c-1.399,0.93-3.184,0.265-3.714-1.201c-0.063-0.161-0.112-0.321-0.124-0.482l-0.025-0.297l-0.233-4.025
	c-0.072-1.226,1.494-1.792,2.224-0.807l2.286,3.09c0.312,0.337,0.543,0.755,0.635,1.276
	C103.668,37.847,103.243,38.839,102.455,39.363"/>
<path style="fill:#AB1919;" d="M128.686,58.516c-0.05,0.025-0.111,0.037-0.161,0.063c-0.05,0.012-0.1,0.037-0.148,0.049l-5.66,2.064
	l-92.91,33.811l-5.646,2.053c-0.05,0.023-0.099,0.037-0.149,0.064c-0.037,0.012-0.061,0.021-0.098,0.021
	c-3.189,1.102-6.674-0.543-7.823-3.721c-1.149-3.15,0.42-6.624,3.534-7.859c0.05-0.023,0.111-0.036,0.161-0.062
	c0.037-0.014,0.086-0.025,0.123-0.037l5.685-2.063l92.897-33.825l5.673-2.064c0.037-0.012,0.086-0.037,0.136-0.049
	c0.037-0.012,0.063-0.025,0.1-0.037c3.176-1.088,6.66,0.558,7.821,3.732C133.356,53.808,131.787,57.281,128.686,58.516"/>
<path style="fill:#AB1919;" d="M134.864,75.991L30.498,113.979c-0.049,0.025-0.099,0.037-0.148,0.064
	c-0.036,0.012-0.073,0.023-0.11,0.037c-3.189,1.088-6.661-0.568-7.812-3.732c-1.174-3.213,0.482-6.76,3.696-7.922L78.152,83.48
	h0.012l17.747,0.111l7.173,0.05c1.052,0.008,2.035-0.52,2.61-1.401l1.883-2.888l5.635-8.626l17.425-6.339
	c3.201-1.175,6.736,0.481,7.923,3.682v0.015C139.721,71.283,138.077,74.829,134.864,75.991"/>
<path style="fill:#96C222;" d="M111.235,164.55h-74.15c0-6.834,5.537-12.357,12.359-12.357h21.627v-6.313
	c-29.104-1.25-56.033-19.699-66.6-48.73C-9.505,58.727,10.367,16.09,48.789,2.113L54.597,0l0.087,0.247l2.026,5.561l-5.808,2.113
	C15.681,20.737-2.535,59.816,10.28,95.038c12.815,35.221,51.905,53.447,87.114,40.621l5.808-2.113l2.027,5.574l0.086,0.232
	l-5.809,2.113c-7.341,2.668-14.83,4.104-22.257,4.412v6.314h21.627C105.711,152.192,111.235,157.716,111.235,164.55"/>
</svg>
