<svg id="Capa_1" data-name="Capa 1" xmlns="http://www.w3.org/2000/svg" viewBox="0 0 138.93 164.55"><defs><style>.cls-1{fill:#f9b233;}.cls-2{fill:#aa1917;}.cls-3{fill:#95c11f;}</style></defs><path class="cls-1" d="M234.27,426.63a62,62,0,0,1-12,19,6.21,6.21,0,0,1-2.41,1.58L170.6,465.15a61.58,61.58,0,0,1-22.89-7,6.19,6.19,0,0,1,.82-11.26l77.88-28.34A6.18,6.18,0,0,1,234.27,426.63Z" transform="translate(-102.75 -331.88)"/><path class="cls-1" d="M155.77,345.61a61.79,61.79,0,0,0-40.67,58.65,6.18,6.18,0,0,0,8.3,5.73l49.27-17.93L222,374.12a6.17,6.17,0,0,0,2.73-9.65A61.79,61.79,0,0,0,155.77,345.61Zm-20.26,51a2.47,2.47,0,0,1-3.69-1.2,3.32,3.32,0,0,1-.14-.49v-.3l-.23-4a1.23,1.23,0,0,1,2.22-.81l2.29,3.09a2.54,2.54,0,0,1,.63,1.27A2.44,2.44,0,0,1,135.51,396.61Zm7.32-15.78a2.48,2.48,0,0,1-3.63-1.26,4.07,4.07,0,0,1-.13-.5v-.29l-.25-4a1.24,1.24,0,0,1,2.24-.81l2.29,3.09a2.49,2.49,0,0,1-.51,3.79Zm7.47-15.9a2.47,2.47,0,0,1-3.71-1.2,2,2,0,0,1-.13-.5l0-.3-.24-4a1.24,1.24,0,0,1,2.23-.81l2.28,3.08a2.47,2.47,0,0,1-.41,3.74Zm8.47,23.21A2.48,2.48,0,0,1,155,387a1.82,1.82,0,0,1-.12-.5l0-.29-.24-4a1.23,1.23,0,0,1,2.22-.81l2.29,3.1a2.45,2.45,0,0,1-.4,3.71Zm3.66-17a3.12,3.12,0,0,1-.14-.5v-.3l-.23-4a1.23,1.23,0,0,1,2.22-.82l2.29,3.09a2.63,2.63,0,0,1,.68,1.9,2.24,2.24,0,0,1-1,1.81,2.88,2.88,0,0,1-.61.3A2.45,2.45,0,0,1,162.43,371.12Zm10.86-14.5a2.49,2.49,0,0,1-3.48-1.35,4.43,4.43,0,0,1-.13-.49v-.3l-.25-4a1.25,1.25,0,0,1,2.24-.82l2.29,3.09a2.5,2.5,0,0,1-.66,3.88Zm8.56,23.16a2.49,2.49,0,0,1-3.59-1.29,2.81,2.81,0,0,1-.12-.48l0-.29-.24-4a1.24,1.24,0,0,1,2.23-.81L182.4,376a2.44,2.44,0,0,1,.64,1.39A2.5,2.5,0,0,1,181.85,379.78Zm7.5-15.91a2.47,2.47,0,0,1-3.7-1.21,1.76,1.76,0,0,1-.12-.49v-.3l-.25-4a1.23,1.23,0,0,1,2.22-.81l2.29,3.09a2.39,2.39,0,0,1,.63,1.27A2.48,2.48,0,0,1,189.35,363.87Zm15.86,7.37a2.48,2.48,0,0,1-3.72-1.2,1.69,1.69,0,0,1-.12-.48l0-.3-.24-4a1.24,1.24,0,0,1,2.23-.81l2.28,3.09a2.55,2.55,0,0,1,.64,1.28A2.47,2.47,0,0,1,205.21,371.24Z" transform="translate(-102.75 -331.88)"/><path class="cls-2" d="M231.44,390.39l-.16.07-.15.05-5.66,2.06-92.91,33.81-5.65,2.05-.15.07-.09,0a6.18,6.18,0,0,1-4.29-11.58l.16-.06.12,0,5.69-2.06L221.24,381l5.68-2.06.13-.05.1,0a6.18,6.18,0,0,1,4.29,11.59Z" transform="translate(-102.75 -331.88)"/><path class="cls-2" d="M237.62,407.87l-104.37,38-.15.06-.11,0a6.18,6.18,0,0,1-4.11-11.66l52-18.94h0l17.74.11,7.18,0a3.09,3.09,0,0,0,2.61-1.4l1.88-2.89L216,402.6l17.42-6.34a6.19,6.19,0,0,1,7.92,3.69h0A6.17,6.17,0,0,1,237.62,407.87Z" transform="translate(-102.75 -331.88)"/><path class="cls-3" d="M214,496.43H139.84a12.36,12.36,0,0,1,12.36-12.36h21.62v-6.31A74.16,74.16,0,0,1,151.54,334l5.81-2.11.09.25,2,5.56-5.8,2.11a68,68,0,1,0,46.49,127.73l5.81-2.11,2,5.58.09.23-5.81,2.11A74,74,0,0,1,180,477.76v6.31h21.63A12.35,12.35,0,0,1,214,496.43Z" transform="translate(-102.75 -331.88)"/></svg>