<?xml version="1.0" encoding="iso-8859-1"?>
<!-- Generator: Adobe Illustrator 16.0.3, SVG Export Plug-In . SVG Version: 6.00 Build 0)  -->
<!DOCTYPE svg PUBLIC "-//W3C//DTD SVG 1.1//EN" "http://www.w3.org/Graphics/SVG/1.1/DTD/svg11.dtd">
<svg version="1.1" id="Capa_1" xmlns="http://www.w3.org/2000/svg" xmlns:xlink="http://www.w3.org/1999/xlink" x="0px" y="0px"
	 width="400px" height="177.24px" viewBox="0 0 400 177.24" style="enable-background:new 0 0 400 177.24;" xml:space="preserve">
<path style="fill:#96C222;" d="M184.396,85.425c0-5.886,2.574-8.4,8.031-8.4h12.753c10.793,0,19.254,3.313,19.254,15.269
	c0,11.895-8.461,15.207-19.254,15.207h-7.051v7.113c0,4.721-2.453,7.357-6.867,7.357c-4.415,0-6.866-2.637-6.866-7.357V85.425z
	 M205.916,96.832c2.33,0,4.783-1.475,4.783-4.479c0-2.944-2.023-4.661-5.457-4.661h-7.113v9.14H205.916L205.916,96.832z"/>
<path style="fill:#96C222;" d="M230.383,82.481c0-4.291,2.637-6.254,6.314-6.254c3.68,0,6.316,1.963,6.316,6.254v33.235
	c0,4.293-2.637,6.254-6.316,6.254c-3.678,0-6.314-1.961-6.314-6.254V82.481z"/>
<path style="fill:#96C222;" d="M284.037,111.791c0,2.209,0.369,4.17,0.369,5.703c0,3.129-2.883,4.475-5.889,4.475
	c-4.354,0-5.947-2.205-6.377-5.088c-2.453,3.68-6.928,5.088-11.281,5.088c-6.99,0-11.957-2.881-11.957-9.932
	c0-5.334,3.68-9.32,16.248-10.117c4.723-0.307,6.623-0.98,6.623-3.127c0-2.023-1.717-3.127-5.09-3.127
	c-5.457,0-6.744,4.354-11.037,4.354c-2.514,0-3.984-1.41-3.984-3.926c0-4.721,6.623-7.786,15.391-7.786
	c6.684,0,16.984,1.532,16.984,9.442V111.791L284.037,111.791z M271.773,106.766c-1.777,1.898-5.887,1.531-8.154,2.451
	c-1.043,0.43-1.719,1.287-1.719,2.637c0,1.9,1.842,3.127,3.863,3.127c3.557,0,6.01-2.207,6.01-4.6V106.766z"/>
<path style="fill:#96C222;" d="M312.244,103.637c0-3.494-1.533-5.395-4.66-5.395s-4.66,2.451-4.66,6.254v11.221
	c0,4.293-2.637,6.254-6.316,6.254s-6.314-1.961-6.314-6.254v-21.4c0-3.924,1.9-6.008,6.068-6.008c3.74,0,5.213,2.147,5.645,5.95
	h0.121c2.086-3.803,5.58-5.95,10.424-5.95c8.768,0,12.326,5.397,12.326,12.387v15.021c0,4.293-2.639,6.254-6.316,6.254
	s-6.314-1.961-6.314-6.254v-12.08H312.244z"/>
<path style="fill:#96C222;" d="M348.422,121.971c-10.057,0-17.967-5.211-17.967-16.863c0-11.588,7.91-16.799,17.967-16.799
	c14.102,0,18.393,9.69,18.393,14.473c0,3.801-1.775,5.148-5.822,5.148h-17.904c0.305,4.045,2.635,6.686,6.744,6.686
	c4.6,0,7.297-3.926,11.16-3.926c2.207,0,3.924,2.146,3.924,4.168C364.914,118.354,360.623,121.971,348.422,121.971 M354.92,101.676
	c0-4.416-2.758-6.01-5.887-6.01c-2.82,0-5.766,1.533-5.947,6.01H354.92z"/>
<path style="fill:#96C222;" d="M375.094,85.058c0-4.354,2.207-6.315,6.131-6.315s6.133,1.963,6.133,6.315v4.045h3.68
	c2.514,0,3.924,1.167,3.924,3.681s-1.41,3.68-3.924,3.68h-3.68v13.918v0.92c0,0.982,0.613,1.473,1.408,1.473
	c4.785,0,6.195,1.473,6.195,4.414c0,2.576-1.596,4.783-8.83,4.783c-7.113,0-11.037-3.557-11.037-10.729V96.465h-2.33
	c-2.514,0-3.924-1.166-3.924-3.68c0-2.516,1.41-3.683,3.924-3.683h2.33V85.058L375.094,85.058z"/>
<path style="fill:#96C222;" d="M137.437,128.799c0-5.885,2.574-8.398,8.031-8.398h14.655c11.896,0,15.636,5.273,15.636,11.16
	c0,4.6-1.595,7.908-6.254,9.137v0.121c5.396,0.98,8.154,5.273,8.154,10.73c0,7.234-5.273,12.998-16.555,12.998h-15.637
	c-5.457,0-8.032-2.514-8.032-8.398L137.437,128.799L137.437,128.799z M158.099,138.365c2.761,0,4.292-1.961,4.292-3.986
	c0-2.451-1.286-4.045-4.292-4.045h-6.928v8.031H158.099z M158.222,154.615c3.435,0,5.702-1.41,5.702-4.293
	c0-2.881-2.268-4.23-5.702-4.23h-7.051v8.523H158.222z"/>
<path style="fill:#96C222;" d="M205.375,137.938c0-4.293,2.639-6.254,6.316-6.254c3.68,0,6.316,1.961,6.316,6.254v21.398
	c0,3.924-1.902,6.008-6.072,6.008c-3.738,0-5.211-2.145-5.641-5.945h-0.123c-2.084,3.803-5.578,5.945-10.423,5.945
	c-8.767,0-12.324-5.395-12.324-12.385v-15.021c0-4.293,2.636-6.254,6.315-6.254s6.315,1.961,6.315,6.254v12.078
	c0,3.494,1.533,5.396,4.66,5.396c3.127,0,4.66-2.451,4.66-6.254V137.938L205.375,137.938z"/>
<path style="fill:#96C222;" d="M224.262,137.938c0-4.293,2.637-6.254,5.703-6.254c3.127,0,5.641,1.715,5.641,6.498v2.451h0.123
	c2.146-5.824,4.6-8.949,8.217-8.949c3.863,0,5.15,3.064,5.15,5.824c0,3.125-1.287,5.088-3.436,5.641l-3.434,0.857
	c-3.371,0.859-5.334,2.146-5.334,6.316v8.768c0,4.293-2.637,6.254-6.314,6.254c-3.68,0-6.316-1.961-6.316-6.254V137.938
	L224.262,137.938z"/>
<path style="fill:#96C222;" d="M274.971,158.049h-0.121c-1.289,3.064-4.967,4.414-8.83,4.414c-5.824,0-13.734-3.924-13.734-15.328
	c0-8.402,5.09-15.451,13.98-15.451c3.68,0,8.646,1.715,9.688,5.766h0.123c0-3.25,1.9-5.766,5.518-5.766
	c3.803,0,5.643,2.084,5.643,6.131v25.814c0,9.996-7.299,13.613-17.967,13.613c-12.08,0-15.145-4.846-15.145-7.357
	c0-2.574,1.717-4.66,4.598-4.66c2.943,0,5.15,3.924,9.504,3.924c5.152,0,6.744-2.33,6.744-6.867V158.049z M270.189,140.512
	c-3.861,0-5.273,2.637-5.273,6.744c0,4.109,1.412,6.744,5.273,6.744c3.926,0,5.273-3.188,5.273-6.744
	C275.463,143.701,274.115,140.512,270.189,140.512"/>
<path style="fill:#F9B334;" d="M315.441,137.938c0-4.293,2.639-6.254,6.316-6.254c3.68,0,6.316,1.961,6.316,6.254v21.398
	c0,3.924-1.902,6.008-6.072,6.008c-3.74,0-5.211-2.145-5.641-5.945h-0.123c-2.084,3.803-5.578,5.945-10.424,5.945
	c-8.77,0-12.324-5.395-12.324-12.385v-15.021c0-4.293,2.637-6.254,6.314-6.254c3.68,0,6.316,1.961,6.316,6.254v12.078
	c0,3.494,1.531,5.396,4.66,5.396c3.127,0,4.658-2.451,4.658-6.254v-11.221H315.441z"/>
<path style="fill:#96C222;" d="M351.621,165.344c-10.057,0-17.969-5.211-17.969-16.861c0-11.588,7.912-16.799,17.969-16.799
	c14.102,0,18.393,9.689,18.393,14.469c0,3.805-1.775,5.15-5.824,5.15h-17.902c0.305,4.047,2.635,6.688,6.744,6.688
	c4.6,0,7.297-3.926,11.158-3.926c2.209,0,3.926,2.146,3.926,4.168C368.113,161.729,363.822,165.344,351.621,165.344
	 M358.119,145.049c0-4.416-2.76-6.008-5.887-6.008c-2.82,0-5.764,1.531-5.947,6.008H358.119z"/>
<path style="fill:#96C222;" d="M375.166,137.938c0-4.293,2.637-6.254,5.703-6.254c3.127,0,5.641,1.715,5.641,6.498v2.451h0.123
	c2.145-5.824,4.6-8.949,8.217-8.949c3.863,0,5.15,3.064,5.15,5.824c0,3.125-1.287,5.088-3.436,5.641l-3.434,0.857
	c-3.371,0.859-5.334,2.146-5.334,6.316v8.768c0,4.293-2.637,6.254-6.314,6.254c-3.68,0-6.316-1.961-6.316-6.254V137.938
	L375.166,137.938z"/>
<path style="fill:#F9B334;" d="M131.519,94.748c-2.796,6.979-6.854,13.436-12.009,19.008c-0.661,0.715-1.495,1.248-2.408,1.58
	L67.848,133.27c-8.055-0.826-15.829-3.23-22.886-7.02c-4.701-2.523-4.194-9.434,0.82-11.256l77.875-28.347
	C128.673,84.822,133.504,89.793,131.519,94.748"/>
<path style="fill:#F9B334;" d="M53.017,13.728c-25.288,9.199-40.922,33.194-40.669,58.655c0.042,4.253,4.306,7.18,8.303,5.725
	l49.272-17.926l49.284-17.941c3.964-1.443,5.401-6.387,2.727-9.65C105.771,12.87,78.335,4.504,53.017,13.728 M32.761,64.733
	c-1.41,0.909-3.166,0.243-3.693-1.202c-0.063-0.173-0.112-0.333-0.137-0.495l-0.013-0.297l-0.234-4.026
	c-0.071-1.225,1.494-1.792,2.225-0.806l2.286,3.09c0.309,0.332,0.537,0.744,0.632,1.269C33.996,63.209,33.566,64.215,32.761,64.733
	 M40.078,48.949c-1.397,0.84-3.103,0.173-3.633-1.261c-0.05-0.161-0.1-0.334-0.124-0.494l-0.013-0.297l-0.247-4.018
	c-0.074-1.235,1.495-1.805,2.236-0.815l2.287,3.09c0.31,0.346,0.556,0.792,0.63,1.334C41.363,47.441,40.906,48.442,40.078,48.949
	 M47.55,33.044c-1.398,0.932-3.184,0.267-3.715-1.2c-0.062-0.16-0.111-0.334-0.124-0.494l-0.023-0.297l-0.235-4.017
	c-0.074-1.223,1.495-1.792,2.224-0.803l2.286,3.077c0.313,0.348,0.542,0.765,0.635,1.286C48.763,31.528,48.338,32.521,47.55,33.044
	 M56.018,56.257c-1.4,0.945-3.196,0.28-3.729-1.179c-0.063-0.173-0.111-0.333-0.124-0.494l-0.012-0.297l-0.247-4.029
	c-0.075-1.225,1.49-1.795,2.22-0.809l2.291,3.095c0.304,0.328,0.531,0.734,0.627,1.249C57.218,54.727,56.805,55.726,56.018,56.257
	 M59.678,39.234c-0.062-0.161-0.11-0.334-0.136-0.494l-0.012-0.297l-0.235-4.017c-0.037-0.617,0.334-1.063,0.803-1.235
	c0.471-0.187,1.052-0.074,1.423,0.42l2.285,3.09c0.422,0.455,0.695,1.059,0.679,1.897c-0.016,0.733-0.413,1.418-1.036,1.806
	c-0.2,0.125-0.393,0.235-0.606,0.301C61.557,41.188,60.148,40.52,59.678,39.234 M70.535,24.737
	c-1.365,0.705-2.967,0.035-3.479-1.346c-0.049-0.161-0.099-0.334-0.124-0.495L66.92,22.6l-0.247-4.018
	c-0.074-1.223,1.495-1.792,2.237-0.814l2.286,3.089c0.366,0.425,0.645,0.954,0.652,1.647C71.859,23.42,71.348,24.318,70.535,24.737
	 M79.104,47.897c-1.39,0.804-3.067,0.136-3.595-1.284c-0.049-0.161-0.099-0.321-0.123-0.482l-0.013-0.297l-0.247-4.027
	c-0.074-1.225,1.495-1.793,2.237-0.805l2.286,3.09c0.332,0.357,0.57,0.807,0.637,1.389C80.394,46.43,79.931,47.417,79.104,47.897
	 M86.595,31.99c-1.406,0.912-3.169,0.246-3.695-1.209c-0.062-0.161-0.111-0.334-0.123-0.494l-0.014-0.297l-0.247-4.022
	c-0.075-1.227,1.493-1.798,2.226-0.81l2.286,3.089c0.308,0.333,0.537,0.744,0.631,1.27C87.828,30.46,87.4,31.467,86.595,31.99
	 M102.457,39.36c-1.399,0.93-3.184,0.265-3.714-1.201c-0.063-0.161-0.112-0.321-0.124-0.482l-0.025-0.297l-0.233-4.025
	c-0.072-1.226,1.494-1.792,2.224-0.807l2.286,3.09c0.312,0.337,0.543,0.755,0.635,1.276C103.67,37.844,103.245,38.836,102.457,39.36
	"/>
<path style="fill:#AB1919;" d="M128.688,58.513c-0.05,0.025-0.111,0.037-0.161,0.063c-0.05,0.012-0.1,0.037-0.148,0.049l-5.66,2.064
	L29.808,94.5l-5.646,2.053c-0.05,0.023-0.099,0.037-0.149,0.064c-0.037,0.012-0.061,0.021-0.098,0.021
	c-3.189,1.102-6.674-0.543-7.823-3.721c-1.149-3.15,0.42-6.624,3.534-7.859c0.05-0.023,0.111-0.036,0.161-0.062
	c0.037-0.014,0.086-0.025,0.123-0.037l5.685-2.063l92.897-33.825l5.673-2.064c0.037-0.012,0.086-0.037,0.136-0.049
	c0.037-0.012,0.063-0.025,0.1-0.037c3.176-1.088,6.66,0.558,7.821,3.732C133.358,53.805,131.789,57.278,128.688,58.513"/>
<path style="fill:#AB1919;" d="M134.866,75.988L30.5,113.977c-0.049,0.025-0.099,0.037-0.148,0.064
	c-0.036,0.012-0.073,0.023-0.11,0.037c-3.189,1.088-6.661-0.568-7.812-3.732c-1.174-3.213,0.482-6.76,3.696-7.922l52.028-18.946
	h0.012l17.747,0.111l7.173,0.05c1.052,0.008,2.035-0.52,2.61-1.401l1.883-2.888l5.635-8.626l17.425-6.339
	c3.201-1.175,6.736,0.481,7.923,3.682v0.015C139.723,71.28,138.079,74.826,134.866,75.988"/>
<path style="fill:#96C222;" d="M111.237,164.547h-74.15c0-6.834,5.537-12.357,12.359-12.357h21.627v-6.313
	c-29.104-1.25-56.033-19.699-66.6-48.73C-9.503,58.724,10.369,16.087,48.791,2.11l5.808-2.113l0.087,0.247l2.026,5.561l-5.808,2.113
	C15.683,20.734-2.533,59.813,10.282,95.035c12.815,35.221,51.905,53.447,87.114,40.621l5.808-2.113l2.027,5.574l0.086,0.232
	l-5.809,2.113c-7.341,2.668-14.83,4.104-22.257,4.412v6.314h21.627C105.713,152.189,111.237,157.713,111.237,164.547"/>
</svg>
