<svg width="58" height="120" viewBox="0 0 58 120" fill="none" xmlns="http://www.w3.org/2000/svg">
<g clip-path="url(#clip0_231_1151)">
<path d="M57.5524 74.3588C57.2788 64.0013 56.5753 53.6243 56.8196 43.2571C57.1323 31.7173 57.1714 15.5851 49.5791 5.98978C46.6478 2.2865 42.3289 0.928304 37.7853 0.429973C31.7076 -0.234468 24.6724 -0.381031 18.8585 1.7784C7.6705 5.93116 4.79777 18.2135 3.40049 28.7957C1.86641 40.4723 0.986994 52.2466 0.400723 64.0404C0.156443 68.926 -0.0585076 73.88 0.0196619 78.7949C0.0196619 80.8175 -0.185556 83.5437 0.820877 85.4002C0.935011 85.6069 1.09558 85.7842 1.2899 85.9181C3.94767 88.3707 10.6116 88.058 13.7677 88.312C16.0542 88.4977 18.3504 88.6345 20.6075 88.7518C20.3535 96.9107 19.5816 105.363 20.0408 113.473C20.3046 118.095 22.767 119.775 27.4669 119.99C32.1669 120.205 33.955 116.873 34.5608 112.691C35.6845 104.943 35.7529 96.8814 36.2512 89.0547H38.2641C43.2572 88.9863 50.3706 89.7484 55.0999 87.677C59.2135 85.8888 57.6599 77.769 57.5524 74.3588ZM33.1245 103.448C32.7825 108.333 34.043 117.948 27.0175 117.675C20.5489 117.42 22.4152 108.148 22.5032 103.79C22.6106 98.8063 22.7474 93.823 22.8842 88.8397C26.6266 88.9863 30.3787 89.0547 34.1211 89.0547L33.1245 103.448ZM54.3963 84.8824C53.4192 85.7716 50.5465 85.5859 49.3056 85.7032C46.296 85.967 43.267 86.0549 40.2379 86.1233C32.6359 86.2796 25.0046 86.1233 17.4124 85.6739C14.3833 85.4882 11.3542 85.2732 8.34471 84.8726C7.13308 84.7065 4.36785 84.6479 3.32233 83.7783C2.70674 82.4298 3.00962 80.2313 2.99008 78.834C2.93146 75.1308 3.05848 71.4176 3.20505 67.7241C3.56984 59.0669 4.15613 50.4194 4.96388 41.7817C5.88237 31.7466 5.941 19.6108 11.8037 11.0513C15.3897 5.81389 20.7639 3.674 26.9295 3.2343C32.8508 2.7946 41.6352 2.31582 46.2765 6.69331C50.5465 10.719 51.9535 18.5262 52.9013 24.0762C53.8665 30.2637 54.2134 36.5319 53.9371 42.7881C53.683 51.3477 54.1325 59.9268 54.4452 68.4863C54.582 72.1505 54.7383 75.8245 54.7188 79.4985C54.7285 80.5831 54.8947 84.3645 54.3572 84.8433L54.3963 84.8824Z" fill="black"/>
<path d="M17.0213 18.3405C14.4027 21.8093 14.09 26.861 13.7187 31.0431C12.9077 39.8372 13.1617 48.6312 12.4973 57.3667C12.1846 60.7182 9.83951 84.5013 20.3142 77.9448C22.5811 76.5182 23.1674 73.1178 23.656 70.7825C24.474 66.5893 25.0061 62.3453 25.2487 58.08C25.8349 49.8428 25.4929 41.5667 26.1378 33.3295C26.4505 29.3722 27.6719 21.0569 24.8383 17.4904C22.6105 14.6763 18.8779 15.888 17.0213 18.3405ZM23.8025 34.8343C23.0209 46.0126 23.7439 57.2201 21.8483 68.3202C21.4477 70.636 18.9658 80.2606 15.3505 75.2577C14.6958 74.3685 14.559 72.0332 14.4417 71.0463C14.0407 66.4906 14.1226 61.9052 14.686 57.3667C15.4775 46.9115 14.686 36.1534 16.5719 25.796C16.7709 24.5029 17.0983 23.2329 17.549 22.0047C18.1255 20.5781 19.3664 17.8324 21.4575 18.0963C23.0502 18.2819 23.6853 20.6954 23.91 21.907C24.721 26.0402 24.0957 30.6425 23.8025 34.8343Z" fill="black"/>
<path d="M37.58 16.1127C34.0526 17.295 33.3393 22.9525 32.9973 26.0989C32.0886 34.5705 33.1048 43.6088 33.2806 52.1196C33.7887 58.7542 33.6031 65.4475 33.9549 72.0919C34.1503 75.7268 35.997 79.303 40.4234 78.707C44.0485 78.2184 45.309 73.626 45.5533 70.5871C46.1982 62.096 45.2504 53.3605 45.5533 44.8302C45.7975 39.7297 49.921 11.96 37.58 16.1127ZM43.3938 44.8302C43.1919 49.8656 43.1137 54.9044 43.1593 59.9463C43.1593 63.8548 45.1722 74.3588 40.228 75.6974C35.147 77.0947 36.0264 69.0921 35.87 65.6526C35.6648 61.1383 35.7821 56.6338 35.4401 52.1196L35.186 36.3684C35.0981 31.6294 34.6389 26.6851 36.0557 22.0927C36.2443 21.0923 36.6153 20.1351 37.1501 19.2688C38.9577 17.3146 42.2506 19.6303 43.2473 21.4282C44.2439 23.2261 43.814 27.5157 43.8629 29.6653C43.9801 34.7171 43.599 39.7785 43.3938 44.8302Z" fill="black"/>
</g>
<defs>
<clipPath id="clip0_231_1151">
<rect width="57.9236" height="120" fill="white"/>
</clipPath>
</defs>
</svg>
