<svg id="Capa_1" data-name="Capa 1" xmlns="http://www.w3.org/2000/svg" viewBox="0 0 135 135"><defs><style>.cls-1{fill:#010101;}</style></defs><path class="cls-1" d="M298,353a67.5,67.5,0,1,0,67.5,67.5A67.5,67.5,0,0,0,298,353Zm37.1,59.77a32.63,32.63,0,0,1-7.44-.89,35.73,35.73,0,0,1-11.7-5.05c-.19-.12-.39-.38-.59-.29s-.12.44-.12.67c0,9.69,0,19.37,0,29.05a27.69,27.69,0,0,1-24.49,27.52A27.46,27.46,0,0,1,275,461a14.93,14.93,0,0,1-2.29-1.4L272,459h0a6.31,6.31,0,0,1-1.42-1,27.32,27.32,0,0,1-9.31-13.39,27,27,0,0,1-1.16-5.79,26.58,26.58,0,0,1-.05-4.28,27.48,27.48,0,0,1,18.1-24,27.71,27.71,0,0,1,7.31-1.55,29.08,29.08,0,0,1,5.44.12c.24,0,.39.08.38.37,0,1,0,2,0,3,0,0,.14,7.64.14,11.13,0,.12,0,.24,0,.37,0,.35-.19.46-.52.37a13.24,13.24,0,0,0-2.92-.45,11.13,11.13,0,0,0-4.47.67c-4.8,1.77-7.71,5.2-8.32,10.26s1.37,9,5.52,11.85c.35.25.7.47,1,.74l.23.22a18,18,0,0,0,3,1,12.64,12.64,0,0,0,15-10.31,12,12,0,0,0,.15-2.16q0-29.16,0-58.33c0-.9-.13-.79.77-.79h13.77c.46,0,.46,0,.46.47a30,30,0,0,0,.47,3.67c1.94,9.83,13.39,15.84,16.92,16.37a18.15,18.15,0,0,0,2.94.26c.41,0,.42,0,.42.4,0,.92.18,10.32.18,13.75C336,412.73,335.89,412.77,335.1,412.77Z" transform="translate(-230.5 -353)"/></svg>