<svg id="Capa_1" data-name="Capa 1" xmlns="http://www.w3.org/2000/svg" viewBox="0 0 135 135"><defs><style>.cls-1{fill:#010101;fill-rule:evenodd;}</style></defs><path class="cls-1" d="M298,353a67.5,67.5,0,1,0,67.5,67.5A67.5,67.5,0,0,0,298,353Zm37.31,53.06c0,.77.05,1.54.05,2.32,0,23.68-18,51-51,51a50.68,50.68,0,0,1-27.47-8.06,35.48,35.48,0,0,0,4.27.25,35.93,35.93,0,0,0,22.26-7.67,18,18,0,0,1-16.74-12.45,18,18,0,0,0,8.09-.31,17.93,17.93,0,0,1-14.38-17.57,1.77,1.77,0,0,1,0-.23,17.71,17.71,0,0,0,8.12,2.25A17.93,17.93,0,0,1,263,391.66a50.87,50.87,0,0,0,36.94,18.72,17.72,17.72,0,0,1-.46-4.08,17.93,17.93,0,0,1,31-12.26,36.21,36.21,0,0,0,11.38-4.35A18,18,0,0,1,334,399.6a35.57,35.57,0,0,0,10.29-2.82A36.52,36.52,0,0,1,335.31,406.06Z" transform="translate(-230.5 -353)"/></svg>