<svg id="Capa_1" data-name="Capa 1" xmlns="http://www.w3.org/2000/svg" viewBox="0 0 135 135"><defs><style>.cls-1{fill:#010101;}</style></defs><path class="cls-1" d="M300.19,383.54A35.6,35.6,0,0,0,270,438.05l.85,1.34-3.6,13.13L280.75,449l1.3.77a35.56,35.56,0,0,0,18.12,5h0a35.59,35.59,0,1,0,0-71.18Zm20.94,50.87c-.89,2.5-5.17,4.78-7.22,5.09a14.67,14.67,0,0,1-6.74-.43,60.33,60.33,0,0,1-6.1-2.25c-10.73-4.63-17.74-15.44-18.28-16.15s-4.37-5.8-4.37-11.07a12,12,0,0,1,3.75-8.92,3.94,3.94,0,0,1,2.85-1.34c.71,0,1.43,0,2.05,0s1.54-.25,2.41,1.84,3,7.4,3.3,7.94a2,2,0,0,1,.09,1.87,7.58,7.58,0,0,1-1.07,1.79c-.54.62-1.13,1.39-1.61,1.87s-1.09,1.11-.47,2.18a32.28,32.28,0,0,0,5.95,7.41,29,29,0,0,0,8.61,5.31c1.07.54,1.69.45,2.32-.27s2.67-3.12,3.38-4.19,1.43-.89,2.41-.54,6.24,3,7.31,3.48,1.79.81,2.05,1.25S322,431.91,321.13,434.41ZM298,353a67.5,67.5,0,1,0,67.5,67.5A67.5,67.5,0,0,0,298,353Zm2.18,109h0a42.76,42.76,0,0,1-20.46-5.21L257,462.69l6.07-22.18A42.83,42.83,0,1,1,300.18,462Z" transform="translate(-230.5 -353)"/></svg>