<svg xmlns="http://www.w3.org/2000/svg" viewBox="0 0 566.93 251.21"><defs><style>.cls-1{fill:#fff;}.cls-2{fill:none;}</style></defs><g id="Capa_2" data-name="Capa 2"><g id="Capa_1-2" data-name="Capa 1"><path class="cls-1" d="M187.4,71.8a8.79,8.79,0,0,0-11.09-5.29l-.14,0-.19.07-8,2.92-131.67,48-8.05,2.92-.18,0a2.18,2.18,0,0,1-.23.09A8.75,8.75,0,0,0,33.89,137a.58.58,0,0,0,.14,0l.21-.09,8-2.91L173.93,86l8-2.93a1.72,1.72,0,0,0,.21-.07l.23-.08A8.78,8.78,0,0,0,187.4,71.8Zm-6.5,7.4L32.75,133.12l-.17,0a4.66,4.66,0,0,1-1.56.27,4.74,4.74,0,0,1-1.72-9.15l.22-.07,8.13-3,140-51a4.74,4.74,0,0,1,3.25,8.9Z"/><path class="cls-1" d="M196.39,96.49h0a8.77,8.77,0,0,0-11.23-5.22l-24.7,9-8,12.23-2.67,4.09a4.36,4.36,0,0,1-3.69,2l-10.17-.07-25.15-.16h0L37,145.17a8.76,8.76,0,0,0,5.83,16.52l.16-.06.21-.08L191.15,107.7A8.75,8.75,0,0,0,196.39,96.49ZM41.58,157.77l-.29.11a4.53,4.53,0,0,1-1.54.26,4.74,4.74,0,0,1-4.3-6.75A4.68,4.68,0,0,1,38.12,149l73.07-26.61,27.26.17Zm150.6-56.28a4.74,4.74,0,0,1-2.67,2.44l-35.33,12.86,8.64-13.23L186.26,95a4.73,4.73,0,0,1,6,2.7l.05.14A4.73,4.73,0,0,1,192.18,101.49Z"/><rect class="cls-2" width="566.93" height="251.21"/></g></g></svg>