<svg xmlns="http://www.w3.org/2000/svg" viewBox="0 0 566.93 251.21"><defs><style>.cls-1{fill:#fff;}.cls-2{fill:none;}</style></defs><g id="Capa_2" data-name="Capa 2"><g id="Capa_1-2" data-name="Capa 1"><path class="cls-1" d="M296.48,109.17H278.4c-7.73,0-11.38,3.57-11.38,11.91v41.37c0,6.69,3.47,10.43,9.73,10.43s9.73-3.74,9.73-10.43V152.37h10c15.29,0,27.29-4.7,27.29-21.56S311.77,109.17,296.48,109.17Zm0,39.18h-10a4,4,0,0,0-4,4v10.08c0,5.65-2.89,6.41-5.72,6.41s-5.72-.76-5.72-6.41V121.08c0-6.71,2.38-7.89,7.37-7.89h18.08c16.31,0,23.27,5.27,23.27,17.62C319.75,139.48,317,148.35,296.48,148.35Z"/><path class="cls-1" d="M296.56,120.28H286.48a4,4,0,0,0-4,4v12.94a4,4,0,0,0,4,4h11c5.23,0,10.8-3.63,10.8-10.36C308.32,124.45,303.7,120.28,296.56,120.28Zm1,17h-11v-13h10.08c4.87,0,7.74,2.43,7.74,6.6S300.82,137.25,297.52,137.25Z"/><path class="cls-1" d="M341.15,108c-5.22,0-8.95,2.79-8.95,8.87V164c0,6.09,3.73,8.87,8.95,8.87s9-2.78,9-8.87v-47.1C350.1,110.83,346.36,108,341.15,108Zm4.93,56c0,2.4-.58,4.85-4.93,4.85s-4.93-2.45-4.93-4.85v-47.1c0-2.4.58-4.85,4.93-4.85s4.93,2.45,4.93,4.85Z"/><path class="cls-1" d="M408.24,158.45v-19.9c0-11.21-14.6-13.38-24.07-13.38-12.43,0-21.82,4.34-21.82,11,0,3.56,2.09,5.56,5.65,5.56,6.09,0,7.91-6.17,15.65-6.17,4.78,0,7.21,1.57,7.21,4.44,0,3-2.69,4-9.39,4.43-17.81,1.13-23,6.78-23,14.34,0,10,7,14.08,16.95,14.08,6.17,0,12.52-2,16-7.22.61,4.09,2.87,7.22,9,7.22,4.26,0,8.34-1.92,8.34-6.35C408.76,164.36,408.24,161.58,408.24,158.45Zm-17.38-2c0,3.39-3.48,6.52-8.52,6.52-2.86,0-5.47-1.74-5.47-4.43a3.75,3.75,0,0,1,2.43-3.74c3.22-1.3,9-.78,11.56-3.48Zm9.56,12.41c-3.8,0-4.69-1.28-5.06-3.79a4,4,0,0,0-2.31-3.06,9.45,9.45,0,0,0,1.83-5.56v-5.13a4,4,0,0,0-6.95-2.74c-.62.66-3.15,1-4.83,1.28a23.45,23.45,0,0,0-5.31,1.22,7.8,7.8,0,0,0-4.94,7.46c0,4.74,4.17,8.45,9.49,8.45a15.51,15.51,0,0,0,1.83-.11,19.28,19.28,0,0,1-8.78,2c-12.93,0-12.93-7.31-12.93-10.06s0-9.11,19.27-10.33c4.6-.3,13.15-.86,13.15-8.44,0-2-.81-8.45-11.23-8.45-5.38,0-8.72,2.37-11.16,4.1-1.91,1.36-3,2.06-4.49,2.06s-1.63-.31-1.63-1.54c0-3.37,6.81-7,17.8-7,4.7,0,20.05.68,20.05,9.37v19.9a51.1,51.1,0,0,0,.32,5.15c.11,1.15.21,2.14.21,2.93C404.75,168.75,401.14,168.86,400.42,168.86Z"/><path class="cls-1" d="M448.65,125.17c-6.86,0-11.82,3-14.77,8.42h-.17c-.61-5.38-2.7-8.42-8-8.42-5.91,0-8.6,3-8.6,8.51V164c0,6.09,3.73,8.87,8.95,8.87S435,170.1,435,164v-15.9c0-5.39,2.17-8.87,6.6-8.87s6.61,2.7,6.61,7.65V164c0,6.09,3.74,8.87,8.95,8.87s8.95-2.78,8.95-8.87V142.72C466.12,132.81,461.08,125.17,448.65,125.17ZM431,148.11V164c0,2.4-.58,4.85-4.93,4.85s-4.94-2.45-4.94-4.85V133.68c0-3.49,1-4.5,4.59-4.5,1.93,0,3.46,0,4,4.86a4,4,0,0,0,4,3.57h.17a3.85,3.85,0,0,0,1.27-.21C432.72,139.37,431,142.77,431,148.11ZM462.1,164c0,2.4-.58,4.85-4.93,4.85s-4.93-2.45-4.93-4.85V146.89c0-7.3-4-11.66-10.63-11.66a10.46,10.46,0,0,0-4.78,1.1,4.14,4.14,0,0,0,.57-.8c2.34-4.27,6-6.35,11.25-6.35,8.93,0,13.45,4.56,13.45,13.54Z"/><path class="cls-1" d="M491.93,148.13h16.78a4,4,0,0,0,4-4c0-7.61-4.85-12.53-12.36-12.53-7.25,0-12.13,4.85-12.44,12.37a4,4,0,0,0,4,4.18Zm8.43-12.54c4.43,0,8.35,2.26,8.35,8.52H491.93C492.19,137.77,496.36,135.59,500.36,135.59Z"/><path class="cls-1" d="M525.56,145.67c0-6.77-6.08-20.5-26.07-20.5-14.25,0-25.46,7.38-25.46,23.81s11.21,23.9,25.46,23.9c17.3,0,23.38-5.13,23.38-10.08,0-2.87-2.43-5.91-5.56-5.91-5.48,0-9.3,5.56-15.82,5.56-5.82,0-9.12-3.74-9.56-9.47h25.38C523.05,153,525.56,151.06,525.56,145.67Zm-24.07,20.8c4.46,0,7.87-1.94,10.61-3.49,2-1.11,3.65-2.08,5.21-2.08.75,0,1.54,1.11,1.54,1.9,0,2.43-5.15,6.06-19.36,6.06-8,0-21.44-2.59-21.44-19.88s13.43-19.8,21.44-19.8c18,0,22.06,12.22,22.06,16.49,0,2.53,0,3.29-4.24,3.29H491.93a4,4,0,0,0-4,4.32C488.54,161.41,493.74,166.47,501.49,166.47Z"/><path class="cls-1" d="M556.68,159.84a1.9,1.9,0,0,1-2-2.09v-21h5.21c3.57,0,5.57-1.65,5.57-5.21s-2-5.22-5.57-5.22h-5.21v-5.73c0-6.17-3.13-9-8.69-9s-8.69,2.78-8.69,9v5.73H534c-3.57,0-5.57,1.66-5.57,5.22s2,5.21,5.57,5.21h3.3v20.95c0,10.17,5.56,15.21,15.64,15.21,10.26,0,12.52-3.13,12.52-6.78C565.46,161.93,563.46,159.84,556.68,159.84Zm-3.74,9c-8,0-11.62-3.45-11.62-11.19V136.72a4,4,0,0,0-4-4H534a2.71,2.71,0,0,1-1.42-.23,2.4,2.4,0,0,1-.13-1,2.22,2.22,0,0,1,.15-1,3.26,3.26,0,0,1,1.4-.21h3.3a4,4,0,0,0,4-4v-5.73c0-4.17,1.57-4.94,4.67-4.94s4.67.77,4.67,4.94v5.73a4,4,0,0,0,4,4h5.22a2.82,2.82,0,0,1,1.41.23,2.56,2.56,0,0,1,.13,1,2.27,2.27,0,0,1-.15,1,3.37,3.37,0,0,1-1.39.2h-5.22a4,4,0,0,0-4,4v21a5.93,5.93,0,0,0,6,6.11c4.76,0,4.76.75,4.76,2.24C561.44,167.93,558.58,168.86,552.94,168.86Z"/><path class="cls-1" d="M214.26,200.13h9.82c5.76,0,10.1-4.16,10.1-9.67,0-6-3.87-9.75-10.1-9.75h-9.82a4,4,0,0,0-4,4v11.38A4,4,0,0,0,214.26,200.13Zm0-15.4h9.82c4.26,0,6.08,2.26,6.08,5.73a5.69,5.69,0,0,1-6.08,5.65h-9.82Z"/><path class="cls-1" d="M240.24,199.59v-.17c6.61-1.74,8.87-6.44,8.87-12.95,0-8.35-5.3-15.82-22.16-15.82H206.18c-7.74,0-11.39,3.56-11.39,11.9v38.77c0,8.34,3.65,11.9,11.39,11.9h22.16c16,0,23.46-8.17,23.46-18.42C251.8,207.06,247.89,201,240.24,199.59Zm-11.9,29.61H206.18c-5,0-7.37-1.18-7.37-7.88V182.55c0-6.7,2.37-7.88,7.37-7.88H227c12,0,18.14,4,18.14,11.8,0,6.24-2.35,8.13-5.87,9.06a4,4,0,0,0-3,3.89v.17a4,4,0,0,0,3.29,3.95c7.19,1.31,8.26,7.61,8.26,11.26C247.78,224,240.7,229.2,228.34,229.2Z"/><path class="cls-1" d="M224.25,203h-10a4,4,0,0,0-4,4v12.08a4,4,0,0,0,4,4h10c7.35,0,12.1-4,12.1-10.1C236.35,208.22,233.17,203,224.25,203Zm0,16.1h-10V207.06h10c4.87,0,8.08,1.91,8.08,6S229.12,219.14,224.25,219.14Z"/><path class="cls-1" d="M300,186.64c-5.22,0-9,2.78-9,8.86v15.91c0,5.39-2.17,8.86-6.6,8.86s-6.6-2.69-6.6-7.65V195.5c0-6.08-3.74-8.86-9-8.86S260,189.42,260,195.5v21.3c0,9.9,5,17.55,17.47,17.55,6.87,0,11.82-3,14.77-8.43h.18c.61,5.39,2.69,8.43,8,8.43,5.91,0,8.61-2.95,8.61-8.52V195.5C309,189.42,305.25,186.64,300,186.64ZM288.69,224c-2.34,4.27-6,6.34-11.25,6.34-8.92,0-13.45-4.55-13.45-13.53V195.5c0-2.39.59-4.84,4.93-4.84s4.94,2.45,4.94,4.84v17.12c0,7.31,4,11.67,10.62,11.67a10.66,10.66,0,0,0,4.79-1.1A4.19,4.19,0,0,0,288.69,224ZM305,225.83c0,3.49-1,4.5-4.59,4.5-1.93,0-3.45,0-4-4.86a4,4,0,0,0-4-3.57h-.18a4.12,4.12,0,0,0-1.27.21c2.43-2,4.16-5.36,4.16-10.7V195.5c0-2.39.59-4.84,4.94-4.84s4.93,2.45,4.93,4.84Z"/><path class="cls-1" d="M345.75,186.64c-5.13,0-8.6,4.43-11.65,12.69h-.17v-3.48c0-6.78-3.56-9.21-8-9.21s-8.08,2.78-8.08,8.86v30c0,6.08,3.74,8.86,8.95,8.86s9-2.78,9-8.86V213.06c0-5.91,2.78-7.73,7.56-8.95l4.86-1.22c3-.78,4.87-3.56,4.87-8C353.05,191,351.22,186.64,345.75,186.64ZM347.18,199l-4.84,1.21c-4.94,1.26-10.6,3.85-10.6,12.85v12.43c0,2.39-.59,4.84-4.94,4.84s-4.93-2.45-4.93-4.84v-30c0-3.21,1.37-4.84,4.06-4.84,2,0,4,.4,4,5.19v3.48a4,4,0,0,0,4,4h.17a4,4,0,0,0,3.77-2.63c3.71-10.06,6.74-10.06,7.88-10.06.9,0,3.28,0,3.28,4.24C349,196.55,348.71,198.61,347.18,199Z"/><path class="cls-1" d="M399.11,186.64c-5.13,0-7.82,3.56-7.82,8.17h-.17c-1.48-5.74-8.52-8.17-13.74-8.17-12.6,0-19.81,10-19.81,21.9,0,16.16,11.21,21.73,19.47,21.73,5.47,0,10.69-1.92,12.51-6.26h.18v6c0,6.43-2.26,9.73-9.56,9.73-6.17,0-9.3-5.56-13.47-5.56a6.27,6.27,0,0,0-6.52,6.6c0,3.57,4.34,10.43,21.46,10.43,15.12,0,25.47-5.13,25.47-19.29V195.33C407.11,189.6,404.5,186.64,399.11,186.64Zm-13.26,35.81c-1.18,2.8-5.32,3.8-8.81,3.8-1.58,0-15.45-.5-15.45-17.71,0-8.9,4.88-17.88,15.79-17.88,3.54,0,8.93,1.6,9.85,5.15,0,0,0,.05,0,.07a12,12,0,0,0-4.29-.74c-3.46,0-11.49,1.32-11.49,13.57s8,13.58,11.49,13.58a12.48,12.48,0,0,0,3.18-.39A4.07,4.07,0,0,0,385.85,222.45Zm-2.9-4.18c-5.48,0-7.48-3.73-7.48-9.56s2-9.56,7.48-9.56,7.47,4.52,7.47,9.56S388.51,218.27,383,218.27Zm20.14,13.65c0,6.56-2.22,15.27-21.45,15.27-14.34,0-17.44-5.14-17.44-6.41a2.28,2.28,0,0,1,2.5-2.58c.64,0,2,.89,3.12,1.68,2.42,1.64,5.73,3.88,10.35,3.88,9,0,13.57-4.63,13.57-13.75v-6a4,4,0,0,0-3.78-4c2.86-2.29,4.48-6.21,4.48-11.29,0-4.16-1.09-7.54-3.05-9.88a4,4,0,0,0,3.92-4c0-2.75,1.28-4.15,3.8-4.15,2.33,0,4,.33,4,4.67Z"/><path class="cls-1" d="M456,186.64c-5.22,0-9,2.78-9,8.86v15.91c0,5.39-2.17,8.86-6.6,8.86s-6.61-2.69-6.61-7.65V195.5c0-6.08-3.73-8.86-8.95-8.86S416,189.42,416,195.5v21.3c0,9.9,5,17.55,17.47,17.55,6.87,0,11.82-3,14.77-8.43h.18c.61,5.39,2.69,8.43,8,8.43,5.91,0,8.61-2.95,8.61-8.52V195.5C465,189.42,461.25,186.64,456,186.64ZM444.69,224c-2.34,4.27-6,6.34-11.25,6.34-8.93,0-13.45-4.55-13.45-13.53V195.5c0-2.39.59-4.84,4.93-4.84s4.94,2.45,4.94,4.84v17.12c0,7.31,4,11.67,10.62,11.67a10.66,10.66,0,0,0,4.79-1.1A4.19,4.19,0,0,0,444.69,224ZM461,225.83c0,3.49-1,4.5-4.59,4.5-1.93,0-3.45,0-4-4.86a4,4,0,0,0-4-3.57h-.18a4.12,4.12,0,0,0-1.27.21c2.43-2,4.16-5.36,4.16-10.7V195.5c0-2.39.59-4.84,4.93-4.84s4.94,2.45,4.94,4.84Z"/><path class="cls-1" d="M490.8,209.6h16.77a4,4,0,0,0,4-4c0-7.62-4.85-12.54-12.36-12.54-7.25,0-12.14,4.86-12.45,12.37a4,4,0,0,0,4,4.18Zm8.43-12.53c4.43,0,8.34,2.26,8.34,8.52H490.8C491.06,199.24,495.23,197.07,499.23,197.07Z"/><path class="cls-1" d="M524.43,207.15c0-6.78-6.08-20.51-26.07-20.51-14.25,0-25.46,7.39-25.46,23.81s11.21,23.9,25.46,23.9c17.29,0,23.38-5.13,23.38-10.08,0-2.87-2.44-5.91-5.57-5.91-5.47,0-9.29,5.56-15.81,5.56-5.83,0-9.13-3.73-9.56-9.47h25.37C521.91,214.45,524.43,212.54,524.43,207.15Zm-24.07,20.79c4.46,0,7.87-1.93,10.6-3.48,2-1.12,3.66-2.08,5.21-2.08.75,0,1.55,1.11,1.55,1.89,0,2.44-5.16,6.06-19.36,6.06-8,0-21.45-2.58-21.45-19.88s13.44-19.79,21.45-19.79c18,0,22,12.21,22,16.49,0,2.52,0,3.28-4.24,3.28H490.8a4,4,0,0,0-4,4.32C487.41,222.89,492.61,227.94,500.36,227.94Z"/><path class="cls-1" d="M559.63,186.64c-5.13,0-8.61,4.43-11.65,12.69h-.17v-3.48c0-6.78-3.56-9.21-8-9.21s-8.08,2.78-8.08,8.86v30c0,6.08,3.74,8.86,8.95,8.86s9-2.78,9-8.86V213.06c0-5.91,2.79-7.73,7.57-8.95l4.86-1.22c3.05-.78,4.87-3.56,4.87-8C566.93,191,565.11,186.64,559.63,186.64ZM561.06,199l-4.84,1.21c-4.94,1.26-10.6,3.85-10.6,12.85v12.43c0,2.39-.59,4.84-4.94,4.84s-4.93-2.45-4.93-4.84v-30c0-3.21,1.37-4.84,4.06-4.84,2,0,4,.4,4,5.19v3.48a4,4,0,0,0,4,4H548a4,4,0,0,0,3.77-2.63c3.71-10.06,6.74-10.06,7.88-10.06.9,0,3.28,0,3.28,4.24C562.91,196.55,562.59,198.61,561.06,199Z"/><path class="cls-1" d="M70.08,215.71a17.51,17.51,0,0,0-17.52,17.51h105.1a17.49,17.49,0,0,0-17.52-17.51H109.49v-9A104.49,104.49,0,0,0,141,200.5l8.23-3-.12-.34-2.88-7.9-8.23,3a96.33,96.33,0,1,1-65.89-181l8.23-3L77.51.35,77.38,0,69.15,3a105.09,105.09,0,0,0,31.58,203.75v9Zm30.79-12.17A101.89,101.89,0,0,1,70.25,6l5.21-1.9.8,2.19-5.21,1.9a99.65,99.65,0,0,0-59.5,127.58,99.49,99.49,0,0,0,127.59,59.5l5.21-1.9.8,2.2-5.21,1.89a101.63,101.63,0,0,1-30.58,6.06,3.22,3.22,0,0,0-3.08,3.21v9a3.21,3.21,0,0,0,3.21,3.21h30.65A14.32,14.32,0,0,1,154.08,230H56.14a14.32,14.32,0,0,1,13.94-11.09h30.65a3.22,3.22,0,0,0,3.22-3.21v-9A3.22,3.22,0,0,0,100.87,203.54Z"/><rect class="cls-2" width="566.93" height="251.21"/></g></g></svg>