<svg xmlns="http://www.w3.org/2000/svg" viewBox="0 0 566.93 251.21"><defs><style>.cls-1{fill:#fff;}.cls-2{fill:none;}</style></defs><g id="Capa_2" data-name="Capa 2"><g id="Capa_1-2" data-name="Capa 1"><path class="cls-1" d="M175.26,122.81,64.89,163a8.77,8.77,0,0,0-1.17,16,87.54,87.54,0,0,0,32.44,9.95L166,163.47a8.6,8.6,0,0,0,3.41-2.24,87.51,87.51,0,0,0,17-26.94A8.76,8.76,0,0,0,175.26,122.81Zm7.41,10a83.1,83.1,0,0,1-16.24,25.7,4.64,4.64,0,0,1-1.84,1.2L95.66,184.79a83,83,0,0,1-30-9.39,4.62,4.62,0,0,1-2.47-4.51,4.69,4.69,0,0,1,3.11-4.13l110.38-40.17a4.64,4.64,0,0,1,1.66-.31,4.76,4.76,0,0,1,3.93,2.15A4.56,4.56,0,0,1,182.67,132.8Z"/><path class="cls-1" d="M172.82,46.2A87.61,87.61,0,0,0,17.5,102.59a8.77,8.77,0,0,0,11.77,8.12L99.1,85.3,169,59.87A8.73,8.73,0,0,0,172.82,46.2Zm-2.25,6.65a4.75,4.75,0,0,1-3,3.25L97.73,81.53l-69.84,25.4a4.61,4.61,0,0,1-1.63.3,4.75,4.75,0,0,1-4.74-4.68A83.58,83.58,0,0,1,169.71,48.74,4.5,4.5,0,0,1,170.57,52.85Z"/><path class="cls-1" d="M116,60l-3.13-4.23a5.76,5.76,0,0,0-4.63-2.35A5.85,5.85,0,0,0,104,55.21a5.68,5.68,0,0,0-1.54,4.29l.35,5.71v.34a3.44,3.44,0,0,0,0,.45,8.1,8.1,0,0,0,.3,1.25c0,.07,0,.14.07.21A7.52,7.52,0,0,0,117.78,64,7.41,7.41,0,0,0,116,60Zm-3.9,7.93A3.52,3.52,0,0,1,107,66.07a4.51,4.51,0,0,1-.17-.68l0-.42-.35-5.71a1.76,1.76,0,0,1,3.17-1.14l3.24,4.38a3.32,3.32,0,0,1,.9,2A3.54,3.54,0,0,1,112.11,67.89Z"/><path class="cls-1" d="M72.83,42.67A7.59,7.59,0,0,0,71.11,39L68,34.79a5.68,5.68,0,0,0-4.61-2.34,5.86,5.86,0,0,0-4.24,1.83,5.72,5.72,0,0,0-1.54,4.29l.34,5.68,0,.52a6.27,6.27,0,0,0,.43,1.8,7.52,7.52,0,0,0,7,4.9,7.52,7.52,0,0,0,7.41-8.8Zm-5.44,4.17a3.5,3.5,0,0,1-5.26-1.7,2.68,2.68,0,0,1-.18-.7l0-.42-.33-5.7a1.74,1.74,0,0,1,3.15-1.13L68,41.55a3.6,3.6,0,0,1,.9,1.82A3.51,3.51,0,0,1,67.39,46.84Z"/><path class="cls-1" d="M50.17,83.92,47,79.69a5.7,5.7,0,0,0-4.62-2.34,5.82,5.82,0,0,0-4.23,1.82,5.72,5.72,0,0,0-1.55,4.28L37,89.16v.36c0,.14,0,.29,0,.43a7.87,7.87,0,0,0,.38,1.45,7.55,7.55,0,0,0,7.07,5,7.67,7.67,0,0,0,4.13-1.23,7.5,7.5,0,0,0,1.56-11.21Zm-3.74,7.83a3.5,3.5,0,0,1-5.23-1.7,4.15,4.15,0,0,1-.2-.7v-.42l-.34-5.71a1.75,1.75,0,0,1,3.16-1.14l3.24,4.38a3.49,3.49,0,0,1-.62,5.29Z"/><path class="cls-1" d="M60.66,61.49l-3.15-4.26a5.75,5.75,0,0,0-4.63-2.34,5.86,5.86,0,0,0-4.24,1.83A5.71,5.71,0,0,0,47.1,61l.35,5.7v.34c0,.15,0,.3,0,.45a9.59,9.59,0,0,0,.3,1.26c0,.07,0,.15.08.22a7.52,7.52,0,0,0,14.49-3.71A7.48,7.48,0,0,0,60.66,61.49ZM56.8,69.38a3.52,3.52,0,0,1-5.15-1.79,4.2,4.2,0,0,1-.17-.7l0-.42-.35-5.69a1.76,1.76,0,0,1,3.17-1.16L57.52,64a3.54,3.54,0,0,1-.72,5.38Z"/><path class="cls-1" d="M105.85,31.86a7.47,7.47,0,0,0-1.79-4.79L100.9,22.8a5.75,5.75,0,0,0-4.62-2.33A5.85,5.85,0,0,0,92,22.3a5.68,5.68,0,0,0-1.54,4.29l.35,5.69v.34c0,.15,0,.3,0,.45a9.78,9.78,0,0,0,.31,1.27c0,.07,0,.14.07.21a7.52,7.52,0,0,0,14.58-2.69ZM100,35.07A3.53,3.53,0,0,1,95,33.16a6.56,6.56,0,0,1-.18-.7V32l-.35-5.7a1.76,1.76,0,0,1,3.17-1.15l3.24,4.38a3.51,3.51,0,0,1,.92,2.33A3.56,3.56,0,0,1,100,35.07Z"/><path class="cls-1" d="M148.92,48l-3.13-4.23a5.69,5.69,0,0,0-4.62-2.34,5.83,5.83,0,0,0-4.23,1.82,5.65,5.65,0,0,0-1.54,4.28l.33,5.71,0,.52a6.5,6.5,0,0,0,.43,1.79,7.53,7.53,0,0,0,7,4.89,7.53,7.53,0,0,0,7.42-8.8A7.49,7.49,0,0,0,148.92,48Zm-3.71,7.81a3.5,3.5,0,0,1-5.26-1.7,2.19,2.19,0,0,1-.17-.68l0-.43-.33-5.7a1.75,1.75,0,0,1,3.15-1.14l3.24,4.38a3.46,3.46,0,0,1,.9,1.8A3.51,3.51,0,0,1,145.21,55.79Z"/><path class="cls-1" d="M126.47,37.5l-3.13-4.23a5.71,5.71,0,0,0-4.62-2.34,5.85,5.85,0,0,0-4.24,1.83,5.71,5.71,0,0,0-1.54,4.3l.35,5.7s0,.44,0,.49a7,7,0,0,0,.43,1.82,7.52,7.52,0,0,0,14.45-3.94A7.43,7.43,0,0,0,126.47,37.5Zm-3.74,7.84a3.49,3.49,0,0,1-5.23-1.71,2.58,2.58,0,0,1-.18-.7l0-.42-.35-5.7a1.75,1.75,0,0,1,3.15-1.15L123.35,40a3.5,3.5,0,0,1-.62,5.3Z"/><path class="cls-1" d="M90.42,45.25a5.74,5.74,0,0,0-4.61-2.34,5.65,5.65,0,0,0-2.11.4A5.72,5.72,0,0,0,80,49l.33,5.69,0,.35a3.42,3.42,0,0,0,0,.45,8,8,0,0,0,.41,1.52,7.58,7.58,0,0,0,11.22,3.63,7.08,7.08,0,0,0,3.36-5.89,7.7,7.7,0,0,0-1.86-5.31Zm-.49,12a4.07,4.07,0,0,1-.86.43,3.49,3.49,0,0,1-4.49-2.09,4.55,4.55,0,0,1-.19-.7l0-.42L84,48.8a1.75,1.75,0,0,1,3.15-1.16L90.43,52a3.64,3.64,0,0,1,1,2.69A3.11,3.11,0,0,1,89.93,57.27Z"/><path class="cls-1" d="M83.08,71.94,79.94,67.7a5.68,5.68,0,0,0-4.61-2.34,5.86,5.86,0,0,0-4.24,1.83,5.67,5.67,0,0,0-1.53,4.29l.35,5.71v.34a6.89,6.89,0,0,0,.4,1.88,7.52,7.52,0,0,0,14.48-3.9A7.41,7.41,0,0,0,83.08,71.94Zm-3.68,7.8a3.51,3.51,0,0,1-5.29-1.67,2.89,2.89,0,0,1-.18-.7V77l-.35-5.71a1.74,1.74,0,0,1,3.14-1.15L80,74.48a3.49,3.49,0,0,1-.56,5.26Z"/><rect class="cls-2" width="566.93" height="251.21"/></g></g></svg>