<?xml version="1.0" encoding="utf-8"?>
<!-- Generator: Adobe Illustrator 16.0.3, SVG Export Plug-In . SVG Version: 6.00 Build 0)  -->
<!DOCTYPE svg PUBLIC "-//W3C//DTD SVG 1.1//EN" "http://www.w3.org/Graphics/SVG/1.1/DTD/svg11.dtd">
<svg version="1.1" id="Capa_1" xmlns="http://www.w3.org/2000/svg" xmlns:xlink="http://www.w3.org/1999/xlink" x="0px" y="0px"
	 width="612px" height="271.18px" viewBox="0 0 612 271.18" enable-background="new 0 0 612 271.18" xml:space="preserve">
<path fill="#FFFFFF" d="M320.073,117.848h-19.518c-8.344,0-12.285,3.854-12.285,12.857v44.659c0,7.222,3.746,11.259,10.503,11.259
	c6.758,0,10.504-4.037,10.504-11.259v-10.883h10.795c16.506,0,29.459-5.072,29.459-23.272
	C349.532,123.008,336.579,117.848,320.073,117.848z M320.073,160.143h-10.795c-2.385,0-4.317,1.935-4.317,4.318v10.882
	c0,6.099-3.121,6.919-6.174,6.919c-3.055,0-6.175-0.82-6.175-6.919v-44.638c0-7.243,2.569-8.517,7.956-8.517h19.518
	c17.606,0,25.12,5.689,25.12,19.021C345.193,150.568,342.225,160.143,320.073,160.143z"/>
<path fill="#FFFFFF" d="M320.159,129.841h-10.881c-2.385,0-4.317,1.934-4.317,4.318v13.968c0,2.385,1.934,4.318,4.317,4.318h11.874
	c5.646,0,11.659-3.92,11.659-11.185C332.854,134.343,327.867,129.841,320.159,129.841z M321.239,148.193h-11.875V134.16h10.882
	c5.258,0,8.355,2.624,8.355,7.125s-3.844,6.876-7.406,6.876L321.239,148.193z"/>
<path fill="#FFFFFF" d="M368.295,116.586c-5.636,0-9.661,3.012-9.661,9.575v50.876c0,6.574,4.025,9.575,9.661,9.575
	s9.716-3.001,9.716-9.575v-50.844C377.956,119.64,373.92,116.586,368.295,116.586z M373.616,177.037
	c0,2.591-0.626,5.234-5.321,5.234s-5.321-2.645-5.321-5.234v-50.844c0-2.591,0.626-5.236,5.321-5.236s5.321,2.645,5.321,5.236
	V177.037z"/>
<path fill="#FFFFFF" d="M440.718,171.046v-21.481c0-12.102-15.762-14.443-25.983-14.443c-13.418,0-23.555,4.686-23.555,11.875
	c0,3.843,2.256,6.002,6.1,6.002c6.573,0,8.538-6.661,16.895-6.661c5.159,0,7.782,1.695,7.782,4.793
	c0,3.239-2.902,4.318-10.137,4.782c-19.226,1.22-24.828,7.318-24.828,15.479c0,10.795,7.558,15.199,18.298,15.199
	c6.66,0,13.516-2.159,17.271-7.794c0.658,4.415,3.099,7.794,9.716,7.794c4.599,0,9.003-2.072,9.003-6.854
	C441.279,177.426,440.718,174.425,440.718,171.046z M421.956,168.887c0,3.66-3.757,7.039-9.196,7.039
	c-3.087,0-5.905-1.879-5.905-4.782c-0.107-1.775,0.957-3.415,2.624-4.038c3.476-1.402,9.715-0.842,12.479-3.756L421.956,168.887
	L421.956,168.887z M432.276,182.283c-4.103,0-5.063-1.383-5.463-4.092c-0.215-1.453-1.154-2.697-2.493-3.304
	c1.277-1.741,1.969-3.843,1.977-6.002v-5.537c0.022-2.385-1.893-4.337-4.276-4.359c-1.227-0.013-2.398,0.498-3.228,1.401
	c-0.669,0.712-3.399,1.079-5.214,1.382c-1.955,0.216-3.879,0.656-5.731,1.316c-3.293,1.297-5.424,4.515-5.332,8.054
	c0,5.116,4.501,9.121,10.244,9.121c0.66,0,1.319-0.04,1.976-0.118c-2.944,1.457-6.192,2.197-9.479,2.158
	c-13.957,0-13.957-7.891-13.957-10.858c0-2.969,0-9.834,20.802-11.151c4.966-0.323,14.195-0.928,14.195-9.11
	c0-2.159-0.875-9.122-12.123-9.122c-5.809,0-9.413,2.56-12.047,4.427c-2.063,1.468-3.238,2.224-4.849,2.224
	c-1.607,0-1.759-0.334-1.759-1.662c0-3.638,7.351-7.557,19.215-7.557c5.073,0,21.645,0.733,21.645,10.114v21.481
	c0.021,1.858,0.137,3.714,0.346,5.56c0.119,1.241,0.227,2.312,0.227,3.163C436.95,182.165,433.054,182.283,432.276,182.283
	L432.276,182.283z"/>
<path fill="#FFFFFF" d="M484.341,135.12c-7.405,0-12.761,3.238-15.944,9.09h-0.184c-0.658-5.809-2.915-9.09-8.637-9.09
	c-6.38,0-9.284,3.238-9.284,9.187v32.73c0,6.574,4.026,9.575,9.661,9.575c5.637,0,9.651-2.99,9.651-9.575v-17.164
	c0-5.818,2.343-9.575,7.124-9.575c4.782,0,7.136,2.915,7.136,8.259v18.48c0,6.574,4.037,9.575,9.662,9.575
	c5.624,0,9.661-3.001,9.661-9.575v-22.973C503.199,143.367,497.759,135.12,484.341,135.12z M465.287,159.884v17.153
	c0,2.591-0.626,5.234-5.321,5.234s-5.332-2.645-5.332-5.234v-32.73c0-3.768,1.079-4.856,4.955-4.856c2.083,0,3.733,0,4.316,5.246
	c0.238,2.201,2.104,3.866,4.318,3.854h0.184c0.466,0.002,0.931-0.074,1.371-0.227C467.144,150.449,465.287,154.119,465.287,159.884z
	 M498.859,177.037c0,2.591-0.626,5.234-5.321,5.234s-5.321-2.645-5.321-5.234v-18.471c0-7.881-4.318-12.587-11.476-12.587
	c-1.79-0.02-3.559,0.389-5.16,1.188c0.238-0.263,0.445-0.553,0.615-0.864c2.525-4.609,6.478-6.854,12.146-6.854
	c9.64,0,14.519,4.922,14.519,14.615L498.859,177.037L498.859,177.037z"/>
<path fill="#FFFFFF" d="M531.062,159.905h18.113c2.385,0,4.317-1.934,4.317-4.317c0-8.215-5.234-13.526-13.343-13.526
	c-7.826,0-13.095,5.235-13.429,13.354c-0.107,2.382,1.735,4.399,4.119,4.508c0.065,0.003,0.133,0.004,0.197,0.004L531.062,159.905z
	 M540.161,146.369c4.782,0,9.015,2.438,9.015,9.196h-18.113C531.342,148.722,535.844,146.368,540.161,146.369L540.161,146.369z"/>
<path fill="#FFFFFF" d="M567.364,157.25c0-7.31-6.563-22.13-28.143-22.13c-15.383,0-27.483,7.967-27.483,25.704
	c0,17.735,12.102,25.8,27.483,25.8c18.676,0,25.239-5.538,25.239-10.881c0-3.1-2.623-6.381-6.003-6.381
	c-5.916,0-10.038,6.003-17.077,6.003c-6.282,0-9.846-4.038-10.319-10.225h27.396C564.655,165.163,567.364,163.068,567.364,157.25z
	 M541.381,179.703c4.813,0,8.495-2.095,11.453-3.768c2.158-1.197,3.939-2.246,5.624-2.246c0.811,0,1.662,1.198,1.662,2.053
	c0,2.623-5.56,6.541-20.898,6.541c-8.636,0-23.145-2.796-23.145-21.46c0-18.665,14.497-21.374,23.145-21.374
	c19.432,0,23.813,13.19,23.813,17.801c0,2.73,0,3.552-4.577,3.552h-27.396c-2.385-0.008-4.324,1.919-4.332,4.304
	c-0.001,0.12,0.004,0.24,0.014,0.359C527.401,174.241,533.015,179.703,541.381,179.703z"/>
<path fill="#FFFFFF" d="M600.959,172.547c-1.131,0.065-2.102-0.799-2.167-1.93c-0.006-0.108-0.004-0.219,0.009-0.327v-22.669h5.624
	c3.854,0,6.013-1.781,6.013-5.624c0-3.844-2.159-5.636-6.013-5.636h-5.624v-6.186c0-6.661-3.379-9.716-9.381-9.716
	s-9.382,3.001-9.382,9.716v6.186h-3.563c-3.854,0-6.013,1.792-6.013,5.636c0,3.843,2.158,5.624,6.013,5.624h3.563v22.615
	c0,10.979,6.002,16.419,16.884,16.419c11.075,0,13.516-3.38,13.516-7.318C610.437,174.803,608.277,172.547,600.959,172.547z
	 M596.92,182.262c-8.636,0-12.543-3.724-12.543-12.079v-22.594c0-2.385-1.934-4.318-4.317-4.318h-3.584
	c-0.524,0.058-1.054-0.028-1.533-0.248c-0.122-0.346-0.17-0.714-0.14-1.079c-0.03-0.367,0.024-0.736,0.162-1.079
	c0.479-0.187,0.995-0.264,1.511-0.228h3.563c2.386,0,4.317-1.934,4.317-4.317v-6.187c0-4.501,1.695-5.333,5.042-5.333
	s5.041,0.831,5.041,5.333v6.187c0,2.385,1.934,4.317,4.317,4.317h5.636c0.521-0.05,1.044,0.036,1.521,0.248
	c0.118,0.347,0.166,0.714,0.142,1.079c0.027,0.368-0.027,0.737-0.162,1.08c-0.479,0.177-0.99,0.25-1.5,0.216h-5.636
	c-2.386,0-4.317,1.934-4.317,4.318v22.669c-0.107,3.534,2.67,6.484,6.204,6.594c0.091,0.002,0.182,0.003,0.271,0.002
	c5.14,0,5.14,0.811,5.14,2.418c0.043,2.02-3.044,3.022-9.134,3.022V182.262L596.92,182.262z"/>
<path fill="#FFFFFF" d="M231.316,216.039h10.601c6.218,0,10.903-4.49,10.903-10.438c0-6.477-4.178-10.524-10.903-10.524h-10.601
	c-2.385,0-4.318,1.934-4.318,4.317v12.285c-0.023,2.384,1.89,4.337,4.275,4.36C231.288,216.039,231.302,216.039,231.316,216.039z
	 M231.316,199.415h10.601c4.599,0,6.563,2.438,6.563,6.186c-0.016,3.394-2.779,6.13-6.171,6.113c-0.131,0-0.262-0.005-0.392-0.014
	h-10.601V199.415z"/>
<path fill="#FFFFFF" d="M259.362,215.457v-0.185c7.135-1.879,9.575-6.951,9.575-13.979c0-9.015-5.722-17.078-23.922-17.078h-22.421
	c-8.355,0-12.295,3.843-12.295,12.846v41.854c0,9.003,3.94,12.846,12.295,12.846h23.922c17.272,0,25.325-8.819,25.325-19.884
	C271.841,223.521,267.621,216.979,259.362,215.457z M246.517,247.421h-23.922c-5.397,0-7.956-1.274-7.956-8.507v-41.854
	c0-7.231,2.558-8.506,7.956-8.506h22.475c12.954,0,19.583,4.317,19.583,12.738c0,6.734-2.537,8.775-6.337,9.78
	c-1.913,0.492-3.247,2.223-3.238,4.198v0.185c-0.007,2.094,1.49,3.892,3.551,4.264c7.762,1.414,8.917,8.215,8.917,12.155
	C267.501,241.807,259.858,247.421,246.517,247.421L246.517,247.421z"/>
<path fill="#FFFFFF" d="M242.102,219.138h-10.795c-2.385,0-4.318,1.935-4.318,4.318v13.04c0,2.385,1.934,4.317,4.318,4.317h10.795
	c7.934,0,13.062-4.317,13.062-10.902C255.164,224.772,251.73,219.138,242.102,219.138z M242.102,236.518h-10.795v-12.997h10.795
	c5.257,0,8.722,2.063,8.722,6.478s-3.465,6.563-8.722,6.563V236.518z"/>
<path fill="#FFFFFF" d="M323.873,201.477c-5.635,0-9.716,3.002-9.716,9.564v17.175c0,5.819-2.343,9.564-7.124,9.564
	c-4.783,0-7.125-2.903-7.125-8.259v-18.48c0-6.563-4.038-9.564-9.716-9.564c-5.678,0-9.5,3.002-9.5,9.564v22.994
	c0,10.687,5.397,18.943,18.858,18.943c7.417,0,12.761-3.237,15.944-9.1h0.194c0.658,5.818,2.903,9.1,8.636,9.1
	c6.38,0,9.295-3.185,9.295-9.196v-32.741C333.589,204.479,329.54,201.477,323.873,201.477z M311.664,241.807
	c-2.525,4.61-6.477,6.846-12.145,6.846c-9.629,0-14.52-4.912-14.52-14.605v-23.005c0-2.58,0.637-5.226,5.322-5.226
	s5.333,2.646,5.333,5.226v18.48c0,7.892,4.318,12.599,11.464,12.599c1.793,0.013,3.563-0.396,5.171-1.188
	C312.047,241.198,311.836,241.492,311.664,241.807z M329.271,243.782c0,3.768-1.079,4.857-4.955,4.857c-2.083,0-3.725,0-4.317-5.247
	c-0.237-2.201-2.104-3.866-4.317-3.854h-0.194c-0.466,0.003-0.929,0.08-1.371,0.227c2.623-2.159,4.491-5.786,4.491-11.551V211.04
	c0-2.58,0.637-5.226,5.332-5.226c4.696,0,5.322,2.646,5.322,5.226L329.271,243.782z"/>
<path fill="#FFFFFF" d="M373.26,201.477c-5.537,0-9.283,4.782-12.576,13.699h-0.185v-3.757c0-7.318-3.843-9.942-8.636-9.942
	s-8.723,3.002-8.723,9.564v32.386c0,6.563,4.038,9.563,9.662,9.563s9.715-3.001,9.715-9.563v-13.43c0-6.38,3.001-8.344,8.161-9.661
	l5.247-1.317c3.237-0.842,5.257-3.843,5.257-8.636C381.141,206.184,379.165,201.477,373.26,201.477z M374.804,214.818l-5.226,1.308
	c-5.333,1.36-11.441,4.156-11.441,13.871v13.419c0,2.579-0.639,5.225-5.333,5.225c-4.696,0-5.322-2.646-5.322-5.225V211.03
	c0-3.466,1.479-5.226,4.383-5.226c2.159,0,4.318,0.433,4.318,5.604v3.757c0,2.385,1.933,4.317,4.316,4.317h0.185
	c1.818,0.006,3.447-1.13,4.07-2.84c4.005-10.858,7.274-10.858,8.506-10.858c0.972,0,3.541,0,3.541,4.576
	C376.769,212.175,376.455,214.398,374.804,214.818z"/>
<path fill="#FFFFFF" d="M430.862,201.477c-5.538,0-8.441,3.845-8.441,8.82h-0.185c-1.598-6.196-9.197-8.82-14.832-8.82
	c-13.602,0-21.385,10.796-21.385,23.643c0,17.443,12.102,23.457,21.018,23.457c5.905,0,11.54-2.072,13.505-6.758h0.194v6.478
	c0,6.94-2.438,10.504-10.32,10.504c-6.659,0-10.039-6.002-14.541-6.002c-3.733-0.155-6.888,2.748-7.042,6.482
	c-0.009,0.214-0.007,0.428,0.005,0.642c0,3.854,4.686,11.26,23.166,11.26c16.321,0,27.494-5.538,27.494-20.824v-39.498
	C439.498,204.672,436.681,201.477,430.862,201.477z M416.548,240.134c-1.273,3.022-5.743,4.104-9.512,4.104
	c-1.705,0-16.678-0.54-16.678-19.118c0-9.607,5.268-19.303,17.045-19.303c3.821,0,9.642,1.729,10.633,5.561c0,0,0,0.054,0,0.075
	c-1.48-0.546-3.051-0.816-4.631-0.8c-3.733,0-12.403,1.427-12.403,14.649s8.637,14.659,12.403,14.659
	c1.158,0.008,2.313-0.134,3.434-0.421C416.728,239.73,416.63,239.929,416.548,240.134L416.548,240.134z M413.417,235.621
	c-5.915,0-8.073-4.026-8.073-10.319c0-6.294,2.158-10.32,8.073-10.32c5.916,0,8.064,4.881,8.064,10.32
	c0,5.44-2.063,10.319-8.01,10.319H413.417z M435.158,250.356c0,7.082-2.396,16.484-23.154,16.484
	c-15.479,0-18.826-5.549-18.826-6.92c-0.188-1.347,0.754-2.589,2.101-2.775c0.198-0.026,0.399-0.029,0.599-0.01
	c0.69,0,2.158,0.961,3.367,1.813c2.612,1.771,6.187,4.188,11.174,4.188c9.716,0,14.648-4.998,14.648-14.843v-6.478
	c0.003-2.296-1.789-4.191-4.081-4.317c3.088-2.474,4.836-6.704,4.836-12.188c0-4.49-1.176-8.14-3.292-10.666
	c2.352-0.047,4.232-1.966,4.231-4.316c0-2.97,1.382-4.48,4.103-4.48c2.516,0,4.317,0.356,4.317,5.042L435.158,250.356z"/>
<path fill="#FFFFFF" d="M529.841,226.263h18.104c2.385,0,4.318-1.934,4.318-4.317c0-8.227-5.235-13.537-13.343-13.537
	c-7.826,0-13.105,5.246-13.439,13.354c-0.107,2.383,1.736,4.4,4.119,4.508c0.065,0.003,0.132,0.005,0.198,0.005L529.841,226.263z
	 M538.941,212.736c4.782,0,9.003,2.438,9.003,9.196h-18.104C530.122,215.079,534.623,212.736,538.941,212.736L538.941,212.736z"/>
<path fill="#FFFFFF" d="M566.145,223.617c0-7.318-6.563-22.142-28.144-22.142c-15.383,0-27.482,7.979-27.482,25.703
	c0,17.726,12.101,25.8,27.482,25.8c18.665,0,25.239-5.537,25.239-10.881c0-3.099-2.634-6.38-6.013-6.38
	c-5.905,0-10.029,6.002-17.067,6.002c-6.293,0-9.854-4.025-10.319-10.223h27.388C563.425,231.498,566.145,229.436,566.145,223.617z
	 M540.161,246.061c4.814,0,8.496-2.084,11.442-3.757c2.159-1.209,3.951-2.245,5.625-2.245c0.81,0,1.673,1.198,1.673,2.04
	c0,2.634-5.57,6.542-20.899,6.542c-8.636,0-23.154-2.785-23.154-21.461c0-18.675,14.509-21.363,23.154-21.363
	c19.433,0,23.75,13.182,23.75,17.802c0,2.721,0,3.541-4.577,3.541h-27.333c-2.386-0.009-4.323,1.92-4.331,4.305
	c-0.001,0.119,0.004,0.239,0.014,0.358C526.182,240.608,531.795,246.061,540.161,246.061z"/>
<path fill="#FFFFFF" d="M604.144,201.477c-5.538,0-9.295,4.782-12.576,13.699h-0.184v-3.757c0-7.318-3.845-9.942-8.638-9.942
	s-8.722,3.002-8.722,9.564v32.386c0,6.563,4.037,9.563,9.661,9.563s9.716-3.001,9.716-9.563v-13.43c0-6.38,3.012-8.344,8.172-9.661
	l5.246-1.317c3.292-0.842,5.257-3.843,5.257-8.636C612.023,206.184,610.059,201.477,604.144,201.477z M605.687,214.818l-5.225,1.308
	c-5.333,1.36-11.442,4.156-11.442,13.871v13.419c0,2.579-0.637,5.225-5.333,5.225c-4.695,0-5.322-2.646-5.322-5.225V211.03
	c0-3.466,1.479-5.226,4.383-5.226c2.159,0,4.318,0.433,4.318,5.604v3.757c0,2.385,1.934,4.317,4.318,4.317h0.205
	c1.818,0.006,3.445-1.13,4.068-2.84c4.005-10.858,7.275-10.858,8.507-10.858c0.973,0,3.54,0,3.54,4.576
	C607.684,212.175,607.339,214.398,605.687,214.818z"/>
<path fill="#FFFFFF" d="M75.674,232.858c-10.439-0.006-18.907,8.451-18.913,18.892c0,0.004,0,0.008,0,0.011h113.456
	c0.012-10.427-8.432-18.89-18.859-18.901c-0.018,0-0.036,0-0.054,0h-33.086v-9.716c11.616-0.469,23.09-2.729,34.015-6.704
	l8.884-3.237l-0.13-0.367l-3.109-8.527l-8.884,3.238c-53.555,20.74-113.784-5.861-134.524-59.417
	C-6.27,94.574,20.333,34.345,73.887,13.605c1.316-0.51,2.643-0.993,3.979-1.448l8.884-3.239l-3.055-8.539l-0.14-0.378l-8.884,3.238
	C15.796,24.67-14.558,89.77,6.875,148.645c15.724,43.194,55.959,72.631,101.887,74.541v9.717L75.674,232.858z M108.913,219.721
	C48.219,217.188,1.07,165.935,3.603,105.242C5.459,60.724,33.991,21.724,75.858,6.477l5.624-2.051l0.864,2.364l-5.625,2.051
	c-55.72,20.346-84.455,81.958-64.23,137.722c20.253,55.751,81.866,84.526,137.616,64.273c0.039-0.015,0.078-0.028,0.117-0.043
	l5.625-2.051l0.864,2.375l-5.625,2.04c-10.602,3.864-21.736,6.071-33.011,6.542c-1.856,0.08-3.321,1.605-3.325,3.465v9.716
	c0,1.913,1.551,3.465,3.465,3.465l0,0h33.086c7.18,0.002,13.414,4.948,15.048,11.939H60.626c1.622-7.005,7.858-11.966,15.048-11.973
	h33.086c1.916,0,3.47-1.55,3.476-3.465v-9.716C112.205,221.295,110.749,219.8,108.913,219.721L108.913,219.721z"/>
</svg>
