<?xml version="1.0" encoding="utf-8"?>
<!-- Generator: Adobe Illustrator 16.0.3, SVG Export Plug-In . SVG Version: 6.00 Build 0)  -->
<!DOCTYPE svg PUBLIC "-//W3C//DTD SVG 1.1//EN" "http://www.w3.org/Graphics/SVG/1.1/DTD/svg11.dtd">
<svg version="1.1" id="Capa_1" xmlns="http://www.w3.org/2000/svg" xmlns:xlink="http://www.w3.org/1999/xlink" x="0px" y="0px"
	 width="612px" height="271.18px" viewBox="0 0 612 271.18" enable-background="new 0 0 612 271.18" xml:space="preserve">
<path fill="#FFFFFF" d="M189.193,132.573L70.049,175.958c-4.924,1.759-7.489,7.177-5.729,12.101
	c0.793,2.221,2.386,4.063,4.466,5.171c10.861,5.83,22.757,9.479,35.019,10.741l75.392-27.506c1.403-0.499,2.666-1.328,3.681-2.418
	c7.845-8.489,14.065-18.347,18.352-29.082c1.941-4.848-0.416-10.352-5.264-12.293C193.797,131.803,191.385,131.768,189.193,132.573z
	 M197.192,143.367c-4.088,10.247-10.031,19.651-17.531,27.742c-0.549,0.586-1.23,1.029-1.986,1.297l-74.41,27.072
	c-11.342-1.283-22.334-4.726-32.385-10.136c-1.793-0.933-2.846-2.854-2.667-4.869c0.125-2.023,1.446-3.777,3.357-4.458
	l119.155-43.362c0.572-0.222,1.179-0.335,1.792-0.335c1.713,0.019,3.304,0.889,4.243,2.32c0.941,1.396,1.104,3.174,0.432,4.717
	V143.367L197.192,143.367z"/>
<path fill="#FFFFFF" d="M186.559,49.872C153.416,9.502,93.822,3.643,53.452,36.786c-22.115,18.156-34.821,45.347-34.561,73.959
	c0.072,5.228,4.369,9.408,9.597,9.336c1.061-0.014,2.112-0.207,3.109-0.57l75.382-27.43l75.457-27.452
	c4.891-1.78,7.412-7.188,5.632-12.079C187.714,51.581,187.205,50.676,186.559,49.872z M184.13,57.051
	c-0.436,1.631-1.647,2.944-3.238,3.509L105.5,88.011L30.107,115.43c-0.563,0.213-1.159,0.323-1.76,0.324
	c-2.798-0.005-5.076-2.254-5.117-5.052c-0.474-49.828,39.536-90.604,89.363-91.078c27.317-0.26,53.28,11.871,70.608,32.99
	C184.225,53.849,184.572,55.509,184.13,57.051z"/>
<path fill="#FFFFFF" d="M125.222,64.77l-3.379-4.566c-1.168-1.591-3.023-2.533-4.998-2.537c-1.726-0.008-3.379,0.69-4.577,1.933
	c-1.177,1.244-1.779,2.923-1.663,4.631l0.378,6.164v0.367c-0.011,0.162-0.011,0.324,0,0.485c0.072,0.458,0.18,0.909,0.324,1.35
	c0,0.076,0,0.151,0.076,0.227c1.331,4.281,5.881,6.672,10.162,5.341c3.87-1.204,6.26-5.077,5.599-9.076
	C126.952,67.487,126.283,65.983,125.222,64.77z M121.012,73.33c-1.81,1.063-4.138,0.457-5.201-1.353
	c-0.122-0.208-0.224-0.427-0.305-0.655c-0.08-0.239-0.142-0.485-0.184-0.734v-0.454l-0.378-6.164
	c-0.053-1.048,0.753-1.941,1.801-1.995c0.634-0.032,1.243,0.254,1.622,0.764l3.498,4.729c0.559,0.589,0.901,1.35,0.971,2.159
	c0.153,1.468-0.553,2.892-1.813,3.66L121.012,73.33z"/>
<path fill="#FFFFFF" d="M78.62,46.062c-0.249-1.464-0.891-2.834-1.857-3.961l-3.357-4.545c-1.157-1.592-3.008-2.531-4.977-2.526
	c-1.731,0.004-3.386,0.718-4.577,1.976c-1.172,1.247-1.774,2.923-1.663,4.631l0.367,6.131v0.562
	c0.058,0.667,0.214,1.322,0.464,1.943c1.175,3.162,4.184,5.268,7.557,5.29c4.483,0,8.118-3.635,8.118-8.118
	c0-0.463-0.04-0.925-0.119-1.382L78.62,46.062L78.62,46.062z M72.748,50.563c-1.725,1.174-4.075,0.728-5.25-0.997
	c-0.177-0.261-0.321-0.542-0.429-0.838c-0.099-0.242-0.164-0.496-0.194-0.756v-0.453l-0.356-6.153
	c-0.069-1.035,0.714-1.93,1.75-1.999c0.648-0.043,1.272,0.251,1.651,0.779l3.487,4.707c0.506,0.548,0.843,1.23,0.972,1.965
	C74.611,48.277,73.975,49.739,72.748,50.563L72.748,50.563z"/>
<path fill="#FFFFFF" d="M54.158,90.591l-3.422-4.566c-1.162-1.592-3.016-2.532-4.987-2.526c-1.728,0-3.379,0.71-4.566,1.965
	c-1.173,1.242-1.779,2.915-1.673,4.62l0.432,6.164v0.389c0,0.151,0,0.313,0,0.464c0.086,0.533,0.224,1.058,0.41,1.565
	c1.157,3.224,4.207,5.381,7.632,5.397c1.583-0.007,3.129-0.468,4.458-1.328c3.746-2.441,4.804-7.458,2.363-11.204
	c-0.205-0.314-0.432-0.614-0.679-0.897L54.158,90.591z M50.121,99.044c-1.734,1.16-4.081,0.694-5.241-1.041
	c-0.166-0.248-0.302-0.515-0.405-0.794c-0.094-0.245-0.166-0.498-0.216-0.756v-0.454l-0.367-6.164
	c-0.064-1.042,0.728-1.938,1.769-2.002c0.644-0.04,1.263,0.251,1.643,0.771l3.498,4.729c1.42,1.521,1.339,3.904-0.181,5.325
	c-0.152,0.142-0.315,0.271-0.488,0.386H50.121L50.121,99.044z"/>
<path fill="#FFFFFF" d="M65.482,66.378l-3.4-4.599c-1.17-1.588-3.025-2.526-4.998-2.526c-1.732,0.004-3.386,0.718-4.577,1.976
	c-1.17,1.244-1.772,2.917-1.663,4.62l0.378,6.153v0.367c0,0.162,0,0.324,0,0.486c0.077,0.46,0.186,0.915,0.324,1.36
	c0,0.076,0,0.162,0.086,0.238c1.561,4.203,6.233,6.345,10.436,4.785c3.592-1.334,5.763-4.999,5.206-8.79
	C67.07,68.95,66.449,67.54,65.482,66.378z M61.315,74.895c-1.788,1.099-4.128,0.542-5.227-1.246
	c-0.134-0.217-0.245-0.447-0.333-0.686c-0.083-0.246-0.144-0.499-0.183-0.756v-0.453l-0.378-6.143
	c-0.066-1.047,0.729-1.95,1.776-2.016c0.643-0.041,1.262,0.247,1.646,0.764l3.476,4.728c1.424,1.558,1.315,3.975-0.242,5.399
	C61.685,74.638,61.505,74.775,61.315,74.895z"/>
<path fill="#FFFFFF" d="M114.265,34.392c-0.016-1.897-0.7-3.728-1.933-5.17l-3.411-4.61c-1.17-1.581-3.02-2.514-4.987-2.515
	c-1.747-0.009-3.42,0.707-4.62,1.976c-1.176,1.244-1.779,2.923-1.663,4.631l0.378,6.143v0.367c0,0.162,0,0.324,0,0.485
	c0.081,0.464,0.192,0.922,0.334,1.371c0,0.076,0,0.151,0.076,0.227c1.543,4.21,6.206,6.372,10.416,4.829
	c3.236-1.186,5.371-4.286,5.324-7.732h0.086V34.392z M107.95,37.858c-1.851,1.001-4.164,0.311-5.164-1.54
	c-0.091-0.168-0.169-0.342-0.233-0.522c-0.079-0.248-0.144-0.5-0.194-0.755v-0.497l-0.378-6.153
	c-0.06-1.047,0.741-1.945,1.789-2.005c0.638-0.036,1.252,0.251,1.634,0.764l3.498,4.728c0.629,0.688,0.982,1.583,0.993,2.515
	C109.939,35.819,109.19,37.153,107.95,37.858z"/>
<path fill="#FFFFFF" d="M160.759,51.816l-3.379-4.566c-1.161-1.594-3.016-2.533-4.987-2.526c-1.727,0-3.378,0.711-4.566,1.964
	c-1.177,1.239-1.78,2.916-1.663,4.621l0.356,6.164v0.561c0.062,0.663,0.218,1.313,0.464,1.933c1.182,3.155,4.187,5.255,7.557,5.278
	c4.489-0.001,8.127-3.642,8.126-8.131c0-0.458-0.039-0.917-0.117-1.369C162.321,54.297,161.702,52.939,160.759,51.816z
	 M156.754,60.246c-1.725,1.174-4.075,0.728-5.25-0.997c-0.177-0.261-0.321-0.542-0.429-0.838c-0.1-0.233-0.162-0.481-0.184-0.734
	v-0.464l-0.356-6.153c-0.056-1.042,0.744-1.932,1.786-1.987c0.631-0.034,1.237,0.25,1.615,0.756l3.498,4.728
	c0.509,0.537,0.847,1.213,0.972,1.943c0.22,1.457-0.424,2.91-1.652,3.724V60.246z"/>
<path fill="#FFFFFF" d="M136.524,40.481l-3.379-4.566c-1.163-1.591-3.017-2.53-4.987-2.526c-1.732,0.003-3.387,0.717-4.577,1.976
	c-1.176,1.249-1.778,2.931-1.663,4.642l0.378,6.153c0,0,0,0.475,0,0.529c0.066,0.672,0.222,1.333,0.464,1.964
	c1.568,4.2,6.245,6.333,10.444,4.765c3.668-1.37,5.836-5.163,5.154-9.018C138.118,42.95,137.483,41.594,136.524,40.481z
	 M132.487,48.944c-1.727,1.161-4.067,0.703-5.229-1.023c-0.172-0.256-0.313-0.532-0.417-0.822c-0.1-0.242-0.165-0.496-0.194-0.756
	v-0.454l-0.378-6.153c-0.062-1.042,0.732-1.936,1.773-1.998c0.635-0.038,1.247,0.247,1.627,0.756l3.487,4.685
	c1.423,1.526,1.339,3.917-0.187,5.34c-0.15,0.14-0.312,0.268-0.482,0.381V48.944z"/>
<path fill="#FFFFFF" d="M97.608,48.847c-1.165-1.583-3.011-2.521-4.977-2.526c-0.78-0.003-1.553,0.144-2.278,0.432
	c-2.534,0.951-4.152,3.441-3.994,6.143l0.356,6.142v0.378c-0.011,0.162-0.011,0.324,0,0.486c0.093,0.56,0.241,1.11,0.442,1.641
	c1.62,4.219,6.353,6.326,10.572,4.706c0.54-0.208,1.056-0.471,1.54-0.787c2.211-1.365,3.578-3.76,3.627-6.358
	c0.078-2.096-0.64-4.143-2.008-5.732L97.608,48.847z M97.079,61.801c-0.29,0.191-0.602,0.347-0.928,0.464
	c-1.952,0.719-4.118-0.28-4.838-2.232c-0.003-0.008-0.006-0.016-0.009-0.024c-0.088-0.246-0.157-0.499-0.206-0.756V58.8
	l-0.421-6.121c-0.068-1.042,0.72-1.941,1.761-2.009c0.64-0.042,1.257,0.243,1.64,0.757l3.541,4.707
	c0.742,0.779,1.132,1.829,1.08,2.904c-0.03,1.144-0.641,2.193-1.62,2.785V61.801z"/>
<path fill="#FFFFFF" d="M89.685,77.659l-3.39-4.577c-1.157-1.592-3.008-2.532-4.976-2.526c-1.732,0.004-3.386,0.718-4.577,1.975
	c-1.174,1.245-1.773,2.924-1.652,4.631l0.378,6.164v0.367c0.048,0.693,0.194,1.376,0.432,2.03c1.494,4.227,6.131,6.443,10.358,4.95
	c3.777-1.334,6.016-5.224,5.273-9.16C91.276,80.084,90.638,78.752,89.685,77.659z M85.712,86.079
	c-1.721,1.191-4.081,0.761-5.272-0.959c-0.181-0.262-0.329-0.545-0.439-0.843c-0.096-0.243-0.161-0.497-0.194-0.755v-0.4
	l-0.377-6.164c-0.073-1.035,0.706-1.933,1.741-2.006c0.644-0.045,1.267,0.244,1.648,0.765l3.541,4.685
	c1.424,1.517,1.349,3.901-0.167,5.325c-0.137,0.128-0.283,0.247-0.437,0.353L85.712,86.079L85.712,86.079z"/>
<path fill="#FFFFFF" d="M492.251,201.477c-5.635,0-9.715,3.002-9.715,9.564v17.174c0,5.82-2.343,9.564-7.125,9.564
	s-7.136-2.902-7.136-8.259v-18.479c0-6.563-4.026-9.564-9.661-9.564c-5.636,0-9.543,3.002-9.543,9.564v22.994
	c0,10.686,5.396,18.942,18.857,18.942c7.417,0,12.761-3.237,15.944-9.1h0.194c0.658,5.818,2.903,9.1,8.637,9.1
	c6.379,0,9.294-3.184,9.294-9.196v-32.74C501.967,204.479,497.919,201.477,492.251,201.477z M480.042,241.807
	c-2.526,4.609-6.477,6.844-12.145,6.844c-9.641,0-14.52-4.911-14.52-14.604v-23.004c0-2.58,0.637-5.226,5.321-5.226
	c4.686,0,5.333,2.646,5.333,5.226v18.479c0,7.892,4.317,12.599,11.464,12.599c1.793,0.014,3.563-0.396,5.171-1.188
	C480.426,241.197,480.215,241.492,480.042,241.807z M497.648,243.781c0,3.768-1.079,4.858-4.954,4.858c-2.084,0-3.726,0-4.318-5.248
	c-0.238-2.201-2.104-3.864-4.318-3.854h-0.193c-0.466,0.004-0.93,0.08-1.371,0.227c2.624-2.158,4.491-5.785,4.491-11.551V211.04
	c0-2.58,0.637-5.226,5.321-5.226c4.686,0,5.332,2.646,5.332,5.226L497.648,243.781z"/>
</svg>
